<svg version="1.1" xmlns="http://www.w3.org/2000/svg" xmlns:xlink="http://www.w3.org/1999/xlink" width="90.91519" height="154.26171" viewBox="0,0,90.91519,154.26171"><g transform="translate(-201.73393,-86.14427)"><g data-paper-data="{&quot;isPaintingLayer&quot;:true}" fill-rule="nonzero" stroke-miterlimit="10" stroke-dasharray="" stroke-dashoffset="0" style="mix-blend-mode: normal"><g><path d="M261.85925,234.54885c-1.07991,0.09494 -2.15981,0.18987 -3.22785,0.26108c1.06804,-0.0712 2.14794,-0.16614 3.22785,-0.26108z" fill="none" stroke="none" stroke-width="1" stroke-linecap="butt" stroke-linejoin="miter"/><path d="M247.82048,235.27275c-8.23576,0 -15.78323,-0.46282 -22.31013,-1.10364c6.5269,0.64082 14.07437,1.10364 22.31013,1.10364z" fill="none" stroke="none" stroke-width="1" stroke-linecap="butt" stroke-linejoin="miter"/><path d="M261.85925,234.54885c8.06962,-0.74763 16.25791,-1.9106 22.31013,-2.87184c-6.05222,0.96123 -14.21677,2.12421 -22.31013,2.87184z" fill="none" stroke="none" stroke-width="1" stroke-linecap="butt" stroke-linejoin="miter"/><path d="M225.51035,234.18097c-6.85918,-0.70016 -12.60285,-1.59019 -16.88687,-2.37342c4.28402,0.78323 10.08703,1.67326 16.88687,2.37342z" fill="none" stroke="none" stroke-width="1" stroke-linecap="butt" stroke-linejoin="miter"/><path d="M225.56969,234.18097c-6.85918,-0.70016 -12.60285,-1.59019 -16.88687,-2.37342c0.48655,-7.55934 0.96123,-14.53718 1.51899,-21.05222c0.5443,0.21677 1.10364,0.39557 1.67326,0.53402c4.75475,1.14241 9.75475,-0.38924 13.0538,-3.99921c1.54035,4.61472 5.68592,7.86472 10.5356,8.25791c4.84889,0.39241 9.4644,-2.14715 11.72706,-6.45411c2.25079,4.33782 6.88291,6.90348 11.75396,6.50949c4.87184,-0.39399 9.03165,-3.67009 10.55617,-8.31329c3.30222,3.60522 8.29905,5.13608 13.0538,3.99921c2.65427,-0.5807 5.0269,-2.06092 6.71677,-4.18908c1.25791,9.71915 2.04114,18.37025 2.44462,23.30696l-5.24525,0.9019l-2.30222,0.36788c-6.05222,0.96123 -14.21677,2.12421 -22.31013,2.87184c-1.07991,0.09494 -2.15981,0.18987 -3.22785,0.26108l-3.19225,0.22547c-2.63449,0.15427 -5.24525,0.23734 -7.61867,0.23734c-8.23576,0 -15.78323,-0.46282 -22.25079,-1.09177z" fill="#c0fffc" stroke="none" stroke-width="1" stroke-linecap="butt" stroke-linejoin="miter"/><path d="M210.10687,210.74347c-0.55775,6.51503 -1.03244,13.49288 -1.51899,21.05222c-2.49209,-0.43908 -4.50949,-0.8663 -5.93354,-1.18671c0.39161,-4.88924 1.18671,-13.63528 2.44462,-23.49684c1.30538,1.64636 3.03797,2.9019 5.00791,3.63133z" fill="#9ef2ed" stroke="none" stroke-width="1" stroke-linecap="butt" stroke-linejoin="miter"/><path d="M205.09896,207.11215c0.23734,-1.82753 0.48655,-3.70253 0.75949,-5.5894c1.57832,-11.22627 3.73813,-23.17642 6.58623,-32.18354c7.25079,-22.97468 14.37104,-30.18987 14.37104,-30.18987c1.40032,0.40348 2.7413,0.74763 4.02294,1.03244c-7.17405,10.81487 -12.43987,22.78085 -15.56962,35.37579c-2.51582,10.4193 -3.93987,21.82358 -5.12658,35.18592c-1.98339,-0.72389 -3.72864,-1.98022 -5.04351,-3.63133z" fill="#89e5dc" stroke="none" stroke-width="1" stroke-linecap="butt" stroke-linejoin="miter"/><path d="M267.56732,139.14933c0,0 7.10839,7.14399 14.32358,30.18987c2.8481,9.00712 5.00791,20.95728 6.58623,32.18354c0.27294,1.88687 0.52215,3.75 0.74763,5.57753c-1.68987,2.12816 -4.0625,3.60839 -6.71677,4.18908c-4.75475,1.13687 -9.75158,-0.39399 -13.0538,-3.99921c-1.54035,4.61472 -5.68592,7.86472 -10.5356,8.25791c-4.84889,0.39241 -9.4644,-2.14715 -11.72706,-6.45411c-2.25,4.34494 -6.88845,6.91535 -11.76503,6.5182c-4.87737,-0.39636 -9.03877,-3.68196 -10.55696,-8.33386c-3.29905,3.60997 -8.29905,5.14161 -13.0538,3.99921c-0.56962,-0.13845 -1.12896,-0.31725 -1.67326,-0.53402c1.13924,-13.35047 2.63449,-24.75475 5.12658,-35.17405c3.13212,-12.60047 8.4019,-24.56962 15.58149,-35.38766c10.12263,2.29035 16.34098,1.30538 16.34098,1.30538c0,0 7.89161,1.25791 20.37579,-2.33782z" fill="#9ef2ed" stroke="none" stroke-width="1" stroke-linecap="butt" stroke-linejoin="miter"/><path d="M247.19152,239.80597c-13.03639,0.08386 -26.04826,-1.13608 -38.84098,-3.6432c0.09494,-1.47152 0.17801,-2.93117 0.27294,-4.36709c4.28402,0.79509 10.02769,1.68513 16.88687,2.37342c6.5269,0.64082 14.07437,1.10364 22.31013,1.10364c2.42089,0 4.98418,-0.08307 7.61867,-0.23734l3.19225,-0.22547c1.06804,-0.0712 2.14794,-0.16614 3.22785,-0.26108c8.06962,-0.74763 16.25791,-1.9106 22.31013,-2.87184l2.30222,-0.36788l5.24525,-0.9019c0.22547,2.7413 0.33228,4.34335 0.33228,4.34335c0,0 -17.05301,5.05538 -44.85759,5.05538z" fill="#ffffff" stroke="none" stroke-width="1" stroke-linecap="butt" stroke-linejoin="miter"/><path d="M208.62349,231.80756c-0.09494,1.43592 -0.17801,2.89557 -0.27294,4.36709c-3.91614,-0.80696 -6.01661,-1.42405 -6.01661,-1.42405c0,0 0.09494,-1.51899 0.32041,-4.14161c1.42405,0.30854 3.44146,0.74763 5.96915,1.19858z" fill="#c0fffc" stroke="none" stroke-width="1" stroke-linecap="butt" stroke-linejoin="miter"/><path d="M247.82048,235.27275c2.37342,0 4.98418,-0.08307 7.61867,-0.23734c-2.63449,0.15427 -5.19778,0.23734 -7.61867,0.23734z" fill="#ffffff" stroke="none" stroke-width="1" stroke-linecap="butt" stroke-linejoin="miter"/><path d="M258.6314,234.80993l-3.19225,0.22547z" fill="#ffffff" stroke="none" stroke-width="1" stroke-linecap="butt" stroke-linejoin="miter"/><path d="M286.47159,231.30914l5.24525,-0.9019v0l-5.24525,0.9019" fill="#ffffff" stroke="none" stroke-width="1" stroke-linecap="butt" stroke-linejoin="miter"/><path d="M292.04912,234.75059c0,0 -17.05301,5.05538 -44.85759,5.05538c-27.80459,0 -44.85759,-5.05538 -44.85759,-5.05538c0,0 0.09494,-1.51899 0.32041,-4.14161c0.91377,-11.2144 3.8568,-42.59098 9.79035,-61.26978c7.25079,-23.06962 14.37104,-30.18987 14.37104,-30.18987h40.75158c0,0 7.10839,7.14399 14.37104,30.18987c5.86234,18.56013 8.84098,49.67563 9.77848,61.06804c0.22547,2.7413 0.33228,4.34335 0.33228,4.34335z" fill="none" stroke="#4181ce" stroke-width="1.2" stroke-linecap="round" stroke-linejoin="round"/><path d="M282.42491,191.96974c0.33228,2.07674 0.32041,2.20728 0.62896,4.55696" fill="none" stroke="#ffffff" stroke-width="2.4" stroke-linecap="round" stroke-linejoin="round"/><path d="M275.82681,166.09949c0,0 3.06171,6.43196 5.77927,21.36076" fill="none" stroke="#ffffff" stroke-width="2.4" stroke-linecap="round" stroke-linejoin="round"/></g><g><path d="M230.98108,139.11373h36.58623c-12.47231,3.63133 -20.37579,2.37342 -20.37579,2.37342c0,0 -6.23022,0.98497 -16.35285,-1.30538c0,0 0.05934,-0.35601 0.14241,-1.03244z" fill="#c0fffc" stroke="none" stroke-width="1" stroke-linecap="butt" stroke-linejoin="miter"/><path d="M230.83868,140.18177c-1.28165,-0.28481 -2.62263,-0.62896 -4.02294,-1.03244h4.16535c-0.08307,0.67642 -0.14241,1.03244 -0.14241,1.03244z" fill="#9ef2ed" stroke="none" stroke-width="1" stroke-linecap="butt" stroke-linejoin="miter"/><path d="M247.19152,108.86452c0,0 -2.58703,-2.68196 -9.16139,-2.68196c6.62184,-0.01187 9.16139,2.68196 9.16139,2.68196z" fill="none" stroke="none" stroke-width="1" stroke-linecap="butt" stroke-linejoin="miter"/><path d="M231.33709,107.20313c-1.42009,0.42563 -2.80459,0.96123 -4.14161,1.60206c-0.7057,-6.31883 -1.81566,-12.58544 -3.32278,-18.76187c1.23339,-0.74367 2.54668,-1.34494 3.91614,-1.79193c1.55222,6.24209 2.73734,12.57041 3.54826,18.95174z" fill="#c0fffc" stroke="none" stroke-width="1" stroke-linecap="butt" stroke-linejoin="miter"/><path d="M231.4083,107.23873c-0.81408,-6.3932 -2.00237,-12.73339 -3.56013,-18.98734c1.48734,-0.5087 3.02848,-0.84335 4.59256,-0.99684c0.17247,1.10206 0.78481,2.08703 1.69699,2.72943c1.13449,0.57595 2.4557,0.66139 3.65506,0.23734c0.04747,1.28797 0.78718,2.45016 1.93434,3.03797c2.08861,0.9019 4.10601,-0.8663 4.10601,-0.8663c0.57674,1.34256 1.89715,2.21282 3.35839,2.21282c1.46123,0 2.78165,-0.87025 3.35839,-2.21282c0,0 2.01741,1.7682 4.10601,0.8663c1.14399,-0.58544 1.88291,-1.74209 1.93434,-3.02611c1.21203,0.45253 2.55854,0.37896 3.7144,-0.20174c0.91297,-0.63133 1.52611,-1.60918 1.69699,-2.7057c3.14557,0.25791 6.16297,1.36155 8.73418,3.19225c-1.54272,6.5981 -2.85997,11.23813 -3.56013,18.28718c-3.37737,-1.65348 -7.07516,-2.55222 -10.83465,-2.63449c-6.57437,0 -9.10206,2.72943 -9.14953,2.68196c-0.04747,-0.04747 -2.58703,-2.68196 -9.16139,-2.68196c-2.24684,0.04114 -4.47627,0.40032 -6.62184,1.06804z" fill="#ffffff" stroke="none" stroke-width="1" stroke-linecap="butt" stroke-linejoin="miter"/><path d="M230.95735,139.14933h-4.17722c0,0 0.99684,-14.29984 0.78323,-22.86788v-0.91377c-0.08307,-2.17168 -0.20174,-4.36709 -0.36788,-6.5625c1.33703,-0.64082 2.72152,-1.17642 4.14161,-1.60206c0.38291,3.08782 0.60839,6.19304 0.67642,9.3038c0.17959,7.5625 -0.16535,15.12816 -1.03244,22.64241z" fill="#9ef2ed" stroke="none" stroke-width="1" stroke-linecap="butt" stroke-linejoin="miter"/><path d="M256.31732,106.17069c3.76345,0.08228 7.4644,0.9818 10.84652,2.63449c-0.16614,2.19541 -0.29668,4.39082 -0.37975,6.5625c0,0.29668 0,0.60522 0,0.91377c-0.22547,8.56804 0.77136,22.86788 0.77136,22.86788h-36.5625c0.86709,-7.51424 1.21203,-15.07991 1.03244,-22.64241c-0.06804,-3.11076 -0.29351,-6.21598 -0.67642,-9.3038c2.17009,-0.66218 4.42405,-1.01028 6.69304,-1.03244c6.62184,0 9.14953,2.69383 9.14953,2.69383c0,0 2.52769,-2.69383 9.12579,-2.69383z" fill="#c0fffc" stroke="none" stroke-width="1" stroke-linecap="butt" stroke-linejoin="miter"/><path d="M238.03013,106.17069c-2.26899,0.02215 -4.52294,0.37025 -6.69304,1.03244c2.17009,-0.66218 4.42405,-1.01028 6.69304,-1.03244z" fill="#c0fffc" stroke="none" stroke-width="1" stroke-linecap="butt" stroke-linejoin="miter"/><path d="M227.19548,108.80518c1.33703,-0.64082 2.72152,-1.17642 4.14161,-1.60206c-1.42009,0.42563 -2.80459,0.96123 -4.14161,1.60206z" fill="#c0fffc" stroke="none" stroke-width="1" stroke-linecap="butt" stroke-linejoin="miter"/><path d="M256.34105,106.15882c-6.62184,0 -9.14953,2.69383 -9.14953,2.69383c0,-0.04747 2.57516,-2.68196 9.14953,-2.69383z" fill="#c0fffc" stroke="none" stroke-width="1" stroke-linecap="butt" stroke-linejoin="miter"/><path d="M232.3814,87.25455l3.75,-0.51028c0,0 3.47706,2.8125 11.06013,2.8125c7.58307,0 11.06013,-2.76503 11.06013,-2.76503l3.75,0.53402c-0.17405,1.09177 -0.78718,2.06566 -1.69699,2.69383c-1.15585,0.5807 -2.50237,0.65427 -3.7144,0.20174c-0.04747,1.28797 -0.78718,2.45016 -1.93434,3.03797c-2.08861,0.9019 -4.10601,-0.8663 -4.10601,-0.8663c-0.57674,1.34256 -1.89715,2.21282 -3.35839,2.21282c-1.46123,0 -2.78165,-0.87025 -3.35839,-2.21282c0,0 -2.01741,1.7682 -4.10601,0.8663c-1.13528,-0.60997 -1.85206,-1.7856 -1.875,-3.07358c-1.21203,0.45253 -2.55854,0.37896 -3.7144,-0.20174c-0.93434,-0.63133 -1.56962,-1.61788 -1.75633,-2.72943z" fill="#ffffff" stroke="#4181ce" stroke-width="0.795" stroke-linecap="round" stroke-linejoin="round"/><path d="M227.81257,113.29094c2.90665,-1.42009 6.11788,-2.10443 9.35127,-1.99367c3.53639,0.11392 6.98655,1.12263 10.02769,2.93117c3.05538,-1.78797 6.50237,-2.79826 10.03956,-2.94304c3.22943,0.0182 6.40981,0.7856 9.29193,2.24288" fill="none" stroke="#ffffff" stroke-width="1.2" stroke-linecap="round" stroke-linejoin="round"/><path d="M267.54358,139.14933c-12.47231,3.63133 -20.37579,2.37342 -20.37579,2.37342c0,0 -7.90348,1.18671 -20.37579,-2.37342c0,0 0.99684,-14.29984 0.77136,-22.86788c0,-0.30854 0,-0.61709 0,-0.91377c-0.08307,-2.17168 -0.21361,-4.36709 -0.36788,-6.5625c-0.70649,-6.31804 -1.81646,-12.58544 -3.32278,-18.76187c2.59415,-1.54984 5.50079,-2.50237 8.5087,-2.78877l3.75,-0.51028c0,0 3.47706,2.8125 11.06013,2.8125c7.58307,0 11.06013,-2.76503 11.06013,-2.76503l3.75,0.53402c3.14161,0.26028 6.15506,1.36313 8.72231,3.19225c-1.54272,6.5981 -2.85997,11.23813 -3.56013,18.28718c-0.15427,2.19541 -0.28481,4.39082 -0.36788,6.5625c0,0.29668 0,0.60522 0,0.91377c-0.22547,8.56804 0.77136,22.86788 0.74763,22.86788z" fill="none" stroke="#4181ce" stroke-width="1.2" stroke-linecap="round" stroke-linejoin="round"/></g><g><path d="M243.47713,145.58129c-1.03244,2.26661 -4.34335,5.11472 -6.31329,6.33703c-1.96994,1.22231 -3.7144,-0.29668 -4.34335,-6.33703c-0.37975,-3.57199 -0.45095,-6.78797 1.10364,-7.02532c1.9462,-0.29668 9.55301,4.34335 9.55301,4.34335z" fill="#ffff4f" stroke="#ff7bd0" stroke-width="0.96" stroke-linecap="round" stroke-linejoin="round"/><path d="M250.90592,142.89933c0,0 7.6068,-4.64003 9.55301,-4.34335c1.55459,0.23734 1.48339,3.45332 1.10364,7.02532c-0.62896,6.04035 -2.37342,7.55934 -4.34335,6.33703c-1.96994,-1.22231 -5.28085,-4.07041 -6.31329,-6.33703z" fill="#ffff4f" stroke="#ff7bd0" stroke-width="0.96" stroke-linecap="round" stroke-linejoin="round"/><path d="M243.47713,140.92939h7.4288v4.30775h-7.4288z" fill="#ffff4f" stroke="none" stroke-width="1" stroke-linecap="butt" stroke-linejoin="miter"/><path d="M243.47713,139.65961h7.4288v1.26978h-7.4288z" fill="#ffffff" stroke="none" stroke-width="1" stroke-linecap="butt" stroke-linejoin="miter"/><path d="M243.47713,140.92939c-3.65269,-1.93829 -7.44066,-3.61234 -11.33307,-5.00791c0.47468,-1.05617 1.06804,-1.79193 1.78006,-1.79193c1.96994,0 9.55301,5.53006 9.55301,5.53006z" fill="#ffffff" stroke="none" stroke-width="1" stroke-linecap="butt" stroke-linejoin="miter"/><path d="M243.47713,140.92939v4.36709c-1.50712,1.16297 -8.12896,4.14161 -10.3481,4.14161c-1.66139,0 -2.29035,-4.18908 -2.29035,-6.93038c0.03718,-2.23655 0.47943,-4.44778 1.30538,-6.5269c3.89082,1.37658 7.6788,3.03006 11.33307,4.94858z" fill="#ffff4f" stroke="none" stroke-width="1" stroke-linecap="butt" stroke-linejoin="miter"/><path d="M250.90592,140.92939v-1.26978c0,0 7.58307,-5.53006 9.55301,-5.53006c0.65269,0 1.19858,0.60522 1.64953,1.51899c-4.05854,1.51899 -11.20253,5.28085 -11.20253,5.28085z" fill="#ffffff" stroke="none" stroke-width="1" stroke-linecap="butt" stroke-linejoin="miter"/><path d="M262.10845,135.64854c0.91614,2.1519 1.40348,4.46123 1.43592,6.79984c0,2.7413 -0.62896,6.93038 -2.29035,6.93038c-2.21915,0 -8.84098,-2.95491 -10.3481,-4.14161v-4.30775c0,0 7.14399,-3.76187 11.20253,-5.28085z" fill="#ffff4f" stroke="none" stroke-width="1" stroke-linecap="butt" stroke-linejoin="miter"/><path d="M239.92887,141.23794l3.54826,0.48655" fill="none" stroke="#ff7bd0" stroke-width="0.795" stroke-linecap="round" stroke-linejoin="round"/><path d="M243.47713,143.29094l-3.54826,0.47468" fill="none" stroke="#ff7bd0" stroke-width="0.795" stroke-linecap="round" stroke-linejoin="round"/><path d="M254.45418,141.19047l-3.54826,0.47468" fill="none" stroke="#ff7bd0" stroke-width="0.795" stroke-linecap="round" stroke-linejoin="round"/><path d="M254.45418,143.71816l-3.54826,-0.48655" fill="none" stroke="#ff7bd0" stroke-width="0.795" stroke-linecap="round" stroke-linejoin="round"/><path d="M243.47713,139.65961h7.4288v5.57753h-7.4288z" fill="none" stroke="#ff7bd0" stroke-width="0.96" stroke-linecap="round" stroke-linejoin="round"/><path d="M243.47713,145.22528c-1.50712,1.16297 -8.12896,4.14161 -10.3481,4.14161c-1.66139,0 -2.29035,-4.21282 -2.29035,-6.93038c0,-2.71756 1.11551,-8.30696 3.08544,-8.30696c1.96994,0 9.55301,5.53006 9.55301,5.53006z" fill="none" stroke="#ff7bd0" stroke-width="0.96" stroke-linecap="round" stroke-linejoin="round"/><path d="M250.90592,139.65961c0,0 7.58307,-5.53006 9.55301,-5.53006c1.96994,0 3.08544,5.5894 3.08544,8.30696c0,2.71756 -0.62896,6.93038 -2.29035,6.93038c-2.21915,0 -8.84098,-2.97864 -10.3481,-4.14161z" fill="none" stroke="#ff7bd0" stroke-width="0.96" stroke-linecap="round" stroke-linejoin="round"/></g></g></g></svg>