<svg version="1.1" xmlns="http://www.w3.org/2000/svg" xmlns:xlink="http://www.w3.org/1999/xlink" width="86.84077" height="124.62678" viewBox="0,0,86.84077,124.62678"><g transform="translate(-182.7,-138.37322)"><g data-paper-data="{&quot;isPaintingLayer&quot;:true}" stroke-miterlimit="10" stroke-dasharray="" stroke-dashoffset="0" style="mix-blend-mode: normal"><g fill-rule="nonzero" stroke="none" stroke-width="1" stroke-linecap="butt" stroke-linejoin="miter"><path d="M256.38314,214.09273c4.41214,10.63439 7.69296,29.30113 8.82428,36.76783c-1.69698,0.56566 -3.62022,0.90505 -5.43033,1.24445v2.82829c-5.88285,1.58385 -11.99197,2.37577 -18.10109,2.60203v2.71516c-4.9778,1.35758 -10.18186,2.03637 -15.38592,2.1495h-0.3394c-5.20406,-0.11313 -10.40812,-0.79192 -15.38592,-2.1495v-2.71516c-6.10912,-0.22626 -12.21823,-1.13132 -18.10109,-2.60203v-2.82829c-3.16769,-0.45253 -6.22225,-1.35758 -9.16368,-2.60203c0,0 2.71516,-20.36372 8.59802,-35.63651c3.50709,-9.16368 8.14549,-17.76169 13.80208,-25.68092l20.36372,2.1495l17.0829,-1.81011c5.09093,8.14549 9.6162,16.63037 13.23642,25.56778z" fill="#ffff4f"/><path d="M268.82763,249.38984c-1.13132,0.56566 -2.37577,1.01819 -3.62022,1.35758c-1.24445,-7.35357 -4.41214,-26.13344 -8.82428,-36.76783c-3.73335,-8.82428 -8.25862,-17.30916 -13.34955,-25.45465l3.39395,-0.3394c5.65659,7.91923 10.29499,16.51724 13.80208,25.68092c5.76972,15.27279 8.59802,35.63651 8.59802,35.52338z" fill="#ffffff"/><path d="M248.23765,159.78947c0,9.27681 -2.03637,27.83042 -2.03637,27.83042c0,0 -1.13132,0.22626 -3.16769,0.56566c0.79192,-5.99598 1.92324,-15.72532 2.26264,-23.87081c0.3394,-7.4667 0.11313,-18.10109 -0.11313,-24.77586c0.79192,0.11313 1.58385,0.3394 2.37577,0.56566c0,0 0.90505,10.74752 0.67879,19.68493z" fill="#ffffff"/><path d="M245.52248,165.21979c-0.3394,8.14549 -1.47071,17.76169 -2.26264,23.87081c-5.65659,0.90505 -11.31318,1.35758 -16.96977,1.47071h-0.3394c-6.78791,-0.11313 -13.57581,-0.90505 -20.25059,-2.1495c0,0 -2.03637,-18.55361 -2.1495,-27.83042c0,-8.82428 0.79192,-19.68493 0.79192,-19.68493c2.4889,-0.79192 10.74752,-1.69698 10.74752,-1.69698c0.3394,1.69698 1.01819,3.39395 2.26264,4.75154c1.69698,1.58385 3.62022,2.94143 8.71115,2.94143c3.62022,0 5.76972,-0.56566 7.91923,-2.37577c1.47071,-1.35758 2.4889,-3.16769 2.94143,-5.09093c0,0 5.99598,0.45253 8.48488,0.90505c0.22626,6.67478 0.45253,17.30916 0.11313,24.88899z" fill="#ffff4f"/></g><g fill-rule="nonzero" stroke="none" stroke-width="1" stroke-linecap="butt" stroke-linejoin="miter"><path d="M218.14459,180.60572c1.24445,-0.79192 2.71516,-1.24445 4.18588,-1.24445c0.3394,0 0.67879,0.11313 1.01819,0.11313c-1.81011,1.35758 -3.39395,3.28082 -4.52527,5.31719v0c-1.01819,1.92324 -1.58385,4.18588 -1.58385,6.33538c-1.24445,-0.67879 -2.03637,-1.81011 -2.26264,-3.16769c-0.45253,-2.82829 0.79192,-5.76972 3.16769,-7.35357z" fill="#ff7bd0"/><path d="M227.082,181.39764c1.81011,2.03637 2.4889,4.9778 1.69698,7.57983c0,0.11313 -0.11313,0.22626 -0.11313,0.3394c-0.79192,-1.58385 -1.92324,-2.94143 -3.28082,-4.07274c-1.35758,-1.24445 -2.71516,-2.1495 -4.29901,-2.82829c0.90505,-1.01819 1.92324,-2.03637 3.05456,-2.82829c1.13132,0.22626 2.1495,0.90505 2.94143,1.81011z" fill="#ff7bd0"/><path d="M228.21332,189.88252c-1.01819,1.47071 -2.94143,2.1495 -6.22225,2.1495c-0.45253,0 -1.01819,-0.11313 -1.47071,-0.11313c1.69698,-1.92324 3.16769,-3.95961 4.29901,-6.22225c1.47071,1.24445 2.60203,2.60203 3.39395,4.18588z" fill="#ff7bd0"/><path d="M217.8052,191.35324c0,-1.35758 0.11313,-2.71516 0.56566,-4.07274c1.35758,0.45253 2.82829,0.79192 4.29901,0.90505c-0.79192,1.24445 -1.81011,2.60203 -2.82829,3.73335c-0.67879,-0.11313 -1.35758,-0.3394 -2.03637,-0.56566z" fill="#ff7bd0"/><path d="M219.27591,184.90472c0.45253,-0.67879 0.90505,-1.35758 1.35758,-2.03637c0.45253,0.22626 0.90505,0.45253 1.35758,0.67879c-0.45253,1.24445 -0.67879,2.4889 -0.90505,3.73335c-0.79192,-0.11313 -1.69698,-0.3394 -2.4889,-0.56566c0.22626,-0.56566 0.45253,-1.13132 0.67879,-1.81011z" fill="#ff7bd0"/><path d="M221.53855,187.50675c0.22626,-1.24445 0.56566,-2.37577 0.90505,-3.50709c0.67879,0.45253 1.35758,0.90505 1.92324,1.35758c-0.3394,0.79192 -0.79192,1.47071 -1.24445,2.26264c-0.45253,-0.11313 -1.01819,-0.11313 -1.58385,-0.11313z" fill="#ff7bd0"/><path d="M230.58909,179.81379c-0.45253,1.01819 -1.24445,1.92324 -2.26264,2.37577c-0.22626,-0.45253 -0.56566,-0.90505 -0.90505,-1.35758c-0.67879,-0.79192 -1.47071,-1.24445 -2.37577,-1.58385c0.45253,-0.79192 1.24445,-1.47071 2.1495,-1.92324c1.13132,-0.45253 2.37577,-0.45253 3.50709,0c0.11313,0 0.22626,0.11313 0.22626,0.22626c0.11313,0.79192 0,1.58385 -0.3394,2.26264z" fill="#c2e203"/></g><g fill-rule="nonzero" stroke="none" stroke-width="1" stroke-linecap="butt" stroke-linejoin="miter"><path d="M199.36471,206.5129c0.22626,1.01819 0.56566,1.81011 0.67879,2.4889c-0.90505,0.22626 -1.69698,0.3394 -2.60203,0.45253c0.11313,-1.01819 0.3394,-2.03637 0.67879,-3.05456c0.45253,0 0.79192,0.11313 1.24445,0.11313z" fill="#ff7bd0"/><path d="M197.55461,206.28663c-0.3394,1.01819 -0.56566,2.03637 -0.67879,3.16769c-0.22626,0 -0.56566,0 -0.79192,0c-0.22626,-1.01819 -0.45253,-2.1495 -0.67879,-3.28082c0.67879,0 1.47071,0 2.1495,0.11313z" fill="#ff7bd0"/><path d="M203.09806,208.6624c-0.67879,1.92324 -2.1495,3.39395 -4.18588,4.29901c-2.1495,0.90505 -4.6384,0.90505 -6.44851,0c0.3394,-0.90505 0.67879,-1.92324 1.13132,-2.94143c0.67879,0.11313 1.35758,0.11313 2.03637,0.11313c0.11313,0 0.11313,0 0.22626,0c2.37577,-0.11313 4.86467,-0.56566 7.24043,-1.47071z" fill="#ff7bd0"/><path d="M194.95257,206.85229c0.11313,0.90505 0.3394,1.81011 0.56566,2.71516c-0.56566,0 -1.13132,-0.11313 -1.69698,-0.11313c0.3394,-0.79192 0.67879,-1.69698 1.13132,-2.60203z" fill="#ff7bd0"/><path d="M198.79906,205.15531c0,0.22626 0.11313,0.45253 0.22626,0.67879c-1.01819,-0.11313 -2.1495,-0.22626 -3.16769,-0.22626c-0.22626,0 -0.3394,0 -0.56566,0c0.56566,-1.24445 1.13132,-2.4889 1.69698,-3.73335c0.67879,0.90505 1.13132,1.81011 1.58385,2.71516z" fill="#ff7bd0"/><path d="M203.32433,207.53108c0,0.11313 -0.11313,0.3394 -0.11313,0.45253c-0.79192,0.3394 -1.58385,0.56566 -2.4889,0.79192c-0.3394,-1.58385 -0.90505,-3.05456 -1.47071,-4.52527c-0.56566,-1.01819 -1.13132,-2.03637 -1.81011,-3.05456c0.22626,-0.56566 0.56566,-1.24445 0.90505,-1.81011c1.24445,0.3394 2.37577,0.79192 3.39395,1.81011c1.47071,1.47071 2.03637,3.62022 1.58385,6.33538z" fill="#ff7bd0"/><path d="M205.92636,216.01597c0,0.11313 -0.11313,0.22626 -0.22626,0.22626c-0.45253,0.11313 -0.79192,0.11313 -1.24445,0.11313c-0.3394,0 -0.79192,0 -1.13132,-0.11313c-1.24445,-0.3394 -2.26264,-1.13132 -2.82829,-2.1495c-0.22626,-0.3394 -0.3394,-0.79192 -0.45253,-1.13132c1.01819,-0.56566 1.92324,-1.47071 2.60203,-2.4889c2.37577,0.79192 3.73335,3.16769 3.28082,5.54346z" fill="#c2e203"/><path d="M194.38692,214.20586c0,1.13132 -0.3394,2.26264 -1.13132,3.16769c-0.79192,0.90505 -1.81011,1.35758 -2.94143,1.47071c0.45253,-1.47071 2.1495,-5.88285 1.92324,-5.31719c0.67879,0.3394 1.35758,0.56566 2.1495,0.67879z" fill="#c2e203"/></g><g fill-rule="nonzero" stroke="none" stroke-width="1" stroke-linecap="butt" stroke-linejoin="miter"><path d="M210.90416,174.04407c0.3394,-1.24445 0.56566,-2.71516 0.56566,-4.07274c0,-1.47071 -0.3394,-2.94143 -0.79192,-4.29901c2.37577,1.01819 3.84648,3.39395 3.73335,5.99598c0,0.90505 -0.22626,1.69698 -0.56566,2.4889c-0.90505,0 -1.92324,0 -2.94143,-0.11313z" fill="#ff7bd0"/><path d="M208.75465,173.81781c-0.3394,-0.79192 -0.67879,-1.58385 -0.90505,-2.37577c1.01819,0.3394 1.92324,0.56566 2.94143,0.79192c-0.11313,0.56566 -0.22626,1.24445 -0.3394,1.81011c-0.56566,0 -1.13132,-0.11313 -1.69698,-0.22626z" fill="#ff7bd0"/><path d="M207.39707,168.95314c1.13132,-0.3394 2.26264,-0.45253 3.50709,-0.45253c0.11313,0.22626 0.11313,0.56566 0.11313,0.79192c-0.79192,0.56566 -1.58385,1.13132 -2.26264,1.81011c-0.3394,-0.11313 -0.67879,-0.22626 -1.01819,-0.3394c-0.22626,-0.67879 -0.3394,-1.35758 -0.3394,-1.81011z" fill="#ff7bd0"/><path d="M210.79103,171.55517c-0.45253,-0.11313 -1.01819,-0.22626 -1.47071,-0.3394c0.45253,-0.45253 1.01819,-0.90505 1.58385,-1.24445c0,0.56566 0,1.13132 -0.11313,1.58385z" fill="#ff7bd0"/><path d="M204.79504,178.00368c-0.22626,-1.58385 -0.3394,-3.39395 -0.45253,-5.09093c0.79192,0.45253 1.58385,0.79192 2.37577,1.13132v0c2.26264,0.56566 4.52527,0.90505 6.78791,0.79192c-1.01819,1.58385 -2.60203,2.82829 -4.52527,3.28082c-1.69698,0.3394 -3.05456,0.22626 -4.18588,-0.11313z" fill="#ff7bd0"/><path d="M210.67789,167.82182c-1.35758,0 -2.71516,0.22626 -4.07274,0.56566c-0.79192,0.22626 -1.69698,0.67879 -2.4889,1.13132c-0.11313,-1.01819 -0.11313,-2.03637 -0.22626,-3.05456c1.35758,-1.01819 3.16769,-1.58385 4.86467,-1.35758c0.45253,0 0.79192,0.11313 1.24445,0.22626c0.22626,0.90505 0.56566,1.69698 0.67879,2.4889z" fill="#ff7bd0"/><path d="M208.07586,173.70468c-0.45253,-0.11313 -0.79192,-0.22626 -1.13132,-0.3394c-0.90505,-0.22626 -1.81011,-0.67879 -2.60203,-1.24445c0,-0.56566 -0.11313,-1.24445 -0.11313,-1.81011c0.79192,-0.56566 1.58385,-0.90505 2.4889,-1.24445c0.22626,1.58385 0.67879,3.05456 1.35758,4.6384z" fill="#ff7bd0"/><path d="M206.49202,164.31474c-0.3394,-1.13132 -0.3394,-2.37577 0.22626,-3.50709c0.56566,-1.13132 1.47071,-1.92324 2.60203,-2.37577c0.11313,-0.11313 0.22626,-0.11313 0.3394,0c0.67879,0.45253 1.13132,1.13132 1.35758,1.92324c0.3394,1.13132 0.3394,2.37577 -0.22626,3.50709c-0.22626,0.45253 -0.45253,0.67879 -0.67879,1.01819c-0.3394,-0.11313 -0.79192,-0.22626 -1.13132,-0.22626c-0.67879,-0.11313 -1.47071,0 -2.1495,0.11313c-0.11313,-0.11313 -0.22626,-0.3394 -0.3394,-0.45253z" fill="#c2e203"/><path d="M220.40723,174.04407c0,0.11313 0,0.22626 -0.11313,0.3394c-0.56566,0.56566 -1.35758,1.01819 -2.1495,1.13132c-0.22626,0.11313 -0.56566,0.11313 -0.90505,0.11313c-0.90505,0 -1.69698,-0.3394 -2.4889,-0.79192c-0.22626,-0.11313 -0.3394,-0.3394 -0.56566,-0.45253c0.3394,-0.79192 0.67879,-1.58385 0.67879,-2.37577c0.11313,-0.45253 0.11313,-0.90505 0,-1.35758c0.11313,0 0.11313,0 0.22626,0c1.13132,-0.22626 2.37577,0 3.39395,0.67879c1.01819,0.67879 1.69698,1.69698 1.92324,2.71516z" fill="#c2e203"/></g><g fill-rule="nonzero" stroke="none" stroke-width="1" stroke-linecap="butt" stroke-linejoin="miter"><path d="M246.42754,245.6565c-0.67879,-1.69698 -1.69698,-3.16769 -2.94143,-4.41214c0.11313,0 0.11313,0 0.22626,0c1.58385,0.11313 2.94143,0.79192 4.07274,1.92324c1.13132,1.13132 1.69698,2.60203 1.58385,4.18588c-0.11313,1.13132 -0.67879,2.1495 -1.47071,2.94143c-0.3394,-1.58385 -0.79192,-3.16769 -1.47071,-4.6384z" fill="#ff7bd0"/><path d="M246.88007,249.05045c-1.24445,0 -2.60203,-0.11313 -3.84648,-0.45253c-0.11313,0 -0.22626,-0.11313 -0.3394,-0.11313h-0.11313c1.01819,-0.67879 2.26264,-1.47071 3.39395,-2.26264c0.45253,0.90505 0.79192,1.92324 0.90505,2.82829z" fill="#ff7bd0"/><path d="M244.39117,243.1676c0.45253,0.45253 0.67879,0.90505 1.01819,1.47071c-0.79192,0.22626 -1.47071,0.3394 -2.26264,0.45253c-0.11313,-0.22626 -0.11313,-0.56566 -0.22626,-0.79192l0.45253,-0.3394c0.3394,-0.3394 0.67879,-0.56566 1.01819,-0.79192z" fill="#ff7bd0"/><path d="M245.63562,245.20397c0.11313,0.11313 0.11313,0.3394 0.22626,0.45253c-0.67879,0.45253 -1.35758,0.90505 -2.03637,1.35758c-0.22626,-0.45253 -0.45253,-0.90505 -0.56566,-1.35758c0.79192,-0.11313 1.58385,-0.22626 2.37577,-0.45253z" fill="#ff7bd0"/><path d="M250.27402,240.6787c-0.45253,0.79192 -1.35758,1.47071 -2.26264,1.81011c-0.67879,-0.67879 -1.58385,-1.13132 -2.4889,-1.47071c0,-0.22626 0,-0.45253 0,-0.67879c0.11313,-1.24445 0.56566,-2.26264 1.47071,-3.16769c0.90505,-0.90505 2.03637,-1.24445 3.28082,-1.24445c0.11313,0 0.22626,0 0.22626,0.11313c0.79192,1.47071 0.67879,3.16769 -0.22626,4.6384z" fill="#c2e203"/><path d="M248.69017,255.61209c0,0 -0.11313,0.11313 -0.22626,0.11313c-0.22626,0 -0.3394,0 -0.45253,0c-1.13132,0 -2.1495,-0.67879 -2.71516,-1.58385c-0.3394,-0.56566 -0.56566,-1.13132 -0.56566,-1.81011c1.01819,-0.22626 2.03637,-0.56566 2.82829,-1.24445c0.67879,0.45253 1.13132,1.01819 1.35758,1.81011c0.3394,0.90505 0.22626,1.81011 -0.22626,2.71516z" fill="#c2e203"/><path d="M240.88408,241.69688c0.45253,-0.22626 1.01819,-0.45253 1.58385,-0.56566h0.3394c0.45253,0.45253 0.90505,1.01819 1.24445,1.47071c-1.01819,0.79192 -1.92324,1.58385 -2.71516,2.37577c-0.11313,0 -0.11313,0.11313 -0.22626,0.22626c-0.11313,-1.24445 -0.11313,-2.37577 -0.22626,-3.50709z" fill="#ff7bd0"/><path d="M243.25985,247.12721l-1.35758,0.90505c-0.22626,-0.11313 -0.45253,-0.22626 -0.67879,-0.3394c0,-0.56566 -0.11313,-1.13132 -0.11313,-1.69698c0.11313,-0.22626 0.3394,-0.45253 0.56566,-0.67879c0.22626,-0.11313 0.45253,-0.3394 0.67879,-0.56566c0.22626,0.90505 0.56566,1.69698 0.90505,2.37577z" fill="#ff7bd0"/><path d="M247.33259,250.74743c-0.79192,0.67879 -1.92324,1.13132 -2.94143,1.24445c-1.13132,0.11313 -2.1495,-0.11313 -3.05456,-0.56566c0,-0.79192 -0.11313,-1.81011 -0.11313,-2.82829c0.56566,0.22626 1.13132,0.45253 1.69698,0.67879c1.35758,0.3394 2.82829,0.56566 4.18588,0.45253c0.11313,0.3394 0.22626,0.67879 0.22626,1.01819z" fill="#ff7bd0"/></g><g fill-rule="nonzero" stroke="none" stroke-width="1" stroke-linecap="butt" stroke-linejoin="miter"><path d="M227.87393,226.31096c-0.22626,-1.47071 0.11313,-3.05456 1.01819,-4.29901c0,-0.11313 0.11313,-0.11313 0.22626,-0.11313c1.01819,0.11313 2.03637,0.56566 2.82829,1.13132c1.47071,1.01819 2.26264,2.60203 2.37577,4.18588c-0.67879,0.56566 -1.35758,1.24445 -1.81011,2.03637c-0.67879,0.22626 -1.47071,0.45253 -2.37577,0.90505c0,-0.11313 0,0 0,0c-1.24445,-0.90505 -2.03637,-2.26264 -2.26264,-3.84648z" fill="#c2e203"/><path d="M237.71639,244.41205c-2.03637,0.22626 -4.18588,-0.11313 -6.10912,-0.90505c-0.79192,-0.3394 -1.58385,-0.79192 -2.26264,-1.35758c0.11313,-0.79192 0.3394,-1.58385 0.56566,-2.37577c2.4889,0.67879 5.09093,0.79192 7.57983,0.45253c0.3394,1.35758 0.45253,2.82829 0.22626,4.18588z" fill="#ff7bd0"/><path d="M231.60727,235.92716c0.67879,-0.90505 1.35758,-1.81011 2.03637,-2.71516c0.79192,0.79192 1.47071,1.69698 2.03637,2.60203c-1.35758,1.13132 -2.4889,2.37577 -3.39395,3.84648c-0.67879,-0.11313 -1.47071,-0.22626 -2.1495,-0.45253c0.45253,-1.13132 0.90505,-2.1495 1.47071,-3.28082z" fill="#ff7bd0"/><path d="M236.92447,238.30293c0.22626,0.45253 0.3394,0.90505 0.45253,1.35758c-1.47071,0.22626 -2.94143,0.3394 -4.41214,0.11313c0.79192,-1.24445 1.92324,-2.37577 3.05456,-3.39395c0.45253,0.56566 0.67879,1.24445 0.90505,1.92324z" fill="#ff7bd0"/><path d="M238.39518,226.19783l0.67879,4.41214c-0.90505,-0.56566 -1.92324,-0.90505 -2.94143,-1.13132c-0.79192,-0.11313 -1.58385,-0.22626 -2.37577,-0.22626c-0.22626,0 -0.45253,0 -0.67879,0c1.24445,-1.69698 3.16769,-2.82829 5.31719,-3.05456z" fill="#ff7bd0"/><path d="M240.65782,244.18578c-0.67879,0.11313 -1.47071,0.22626 -2.26264,0.3394c0.11313,-2.1495 -0.22626,-4.29901 -0.90505,-6.33538c-0.79192,-2.03637 -2.03637,-3.73335 -3.50709,-5.31719c0.79192,-0.90505 1.69698,-1.81011 2.60203,-2.60203c0.79192,0.22626 1.47071,0.45253 2.1495,0.90505c0.22626,0.11313 0.45253,0.3394 0.67879,0.56566c0.45253,3.28082 0.90505,7.57983 1.24445,12.4445z" fill="#ff7bd0"/><path d="M241.11034,247.24034c-2.1495,1.58385 -5.43033,2.37577 -8.14549,2.03637c-2.4889,-0.3394 -4.75154,-1.47071 -5.99598,-3.16769c-1.47071,-1.92324 -1.92324,-4.6384 -1.47071,-7.69296c1.35758,2.4889 3.39395,4.41214 5.99598,5.65659c3.16769,1.35758 7.24043,0.90505 9.27681,0.56566z" fill="#ff7bd0"/><path d="M236.01941,230.04431c-1.81011,1.69698 -3.50709,3.62022 -4.86467,5.65659c-1.13132,1.81011 -1.92324,3.84648 -2.26264,5.99598c-1.35758,-1.24445 -2.4889,-2.71516 -3.28082,-4.29901c0.3394,-1.35758 0.90505,-2.60203 1.58385,-3.84648c1.81011,-3.05456 5.43033,-4.52527 8.82428,-3.50709z" fill="#ff7bd0"/><path d="M225.04563,243.1676c-1.35758,-0.90505 -2.37577,-2.4889 -2.71516,-4.41214c-0.3394,-2.03637 0,-3.95961 1.01819,-5.43033c1.92324,-2.71516 6.22225,-3.16769 6.33538,-3.05456c0,0.11313 0,0.11313 0,0.11313c-1.35758,0.67879 -2.71516,2.26264 -3.28082,3.28082c-0.45253,0.79192 -1.01819,2.26264 -1.35758,3.73335c0,0.11313 -0.79192,2.82829 0,5.76972z" fill="#ff7bd0"/><path d="M226.74261,246.78781c-0.11313,0.22626 -0.22626,0.45253 -0.3394,0.67879c-0.79192,1.35758 -2.03637,2.37577 -3.50709,2.71516c-0.3394,0.11313 -0.79192,0.22626 -1.13132,0.22626c-1.13132,0.11313 -2.26264,-0.22626 -3.28082,-0.79192c0,0 -0.11313,-0.11313 -0.11313,-0.22626c0,-1.01819 0.22626,-2.03637 0.79192,-2.94143c1.24445,-2.1495 3.62022,-3.16769 5.88285,-2.82829c0.45253,1.24445 0.90505,2.26264 1.69698,3.16769c0,0 0.11313,0.11313 0,0z" fill="#c2e203"/><path d="M235.90628,250.74743c0.45253,1.47071 0.3394,3.05456 -0.45253,4.41214c-0.67879,1.35758 -1.92324,2.37577 -3.39395,2.82829h-0.11313c-0.11313,0 -0.22626,-0.11313 -0.22626,-0.11313c-0.67879,-0.67879 -1.24445,-1.58385 -1.58385,-2.60203c-0.67879,-2.03637 -0.11313,-4.18588 1.35758,-5.65659c0.45253,0.22626 0.90505,0.22626 1.35758,0.3394c0.45253,0.11313 0.90505,0.11313 1.35758,0.11313c0.45253,0 0.79192,-0.11313 1.24445,-0.11313c0.11313,0.22626 0.22626,0.56566 0.45253,0.79192z" fill="#c2e203"/></g><g fill="none" fill-rule="evenodd" stroke="#db20a5" stroke-width="1.2" stroke-linecap="round" stroke-linejoin="round"><path d="M192.35054,252.10501c0.56566,-9.84247 2.71516,-20.81625 5.88285,-32.46882"/><path d="M210.45163,257.53533c0.22626,-11.65257 1.47071,-23.19202 3.62022,-34.61833"/><path d="M253.89424,219.63618c3.16769,11.65257 5.43033,22.62636 5.88285,32.46882"/><path d="M238.05579,222.80387c2.60203,13.01016 3.62022,31.90316 3.62022,37.33349"/><path d="M248.46391,160.35513c0,9.27681 -2.03637,27.83042 -2.03637,27.83042c-6.67478,1.35758 -13.34955,2.03637 -20.13746,2.1495h-0.3394c-6.78791,-0.11313 -13.57581,-0.90505 -20.25059,-2.1495c0,0 -2.03637,-18.44048 -2.1495,-27.71729c0,-8.82428 0.79192,-19.68493 0.79192,-19.68493c2.4889,-0.79192 10.74752,-1.69698 10.74752,-1.69698c0.3394,1.58385 1.01819,3.16769 2.03637,4.52527c1.69698,2.1495 4.75154,3.16769 8.93741,3.16769c4.18588,0 6.56164,-1.01819 8.37175,-2.82829c1.24445,-1.47071 2.1495,-3.16769 2.60203,-4.9778c0,0 8.14549,0.90505 10.74752,1.69698c0,0 0.90505,10.74752 0.67879,19.68493z"/><path d="M268.94077,249.50298c-2.94143,1.24445 -5.99598,2.1495 -9.16368,2.60203v2.82829c-5.88285,1.58385 -11.99197,2.37577 -18.10109,2.60203v2.71516c-4.9778,1.35758 -10.18186,2.03637 -15.38592,2.1495h-0.3394c-5.20406,-0.11313 -10.40812,-0.79192 -15.38592,-2.1495v-2.71516c-6.10912,-0.22626 -12.21823,-1.13132 -18.10109,-2.60203v-2.82829c-3.16769,-0.45253 -6.22225,-1.35758 -9.16368,-2.60203c0,0 2.71516,-20.36372 8.59802,-35.63651c3.50709,-9.16368 8.14549,-17.76169 13.80208,-25.68092l20.36372,2.1495l20.36372,-2.1495c5.65659,7.91923 10.29499,16.51724 13.80208,25.68092c5.76972,15.27279 8.71115,35.63651 8.71115,35.63651z"/></g><path d="M204.90817,189.54313l0.56566,-3.84648c3.16769,0.90505 6.33538,1.47071 9.50307,1.81011c3.62022,0.45253 7.35357,0.79192 11.08692,0.79192h0.11313c3.73335,0 7.35357,-0.22626 11.08692,-0.79192c3.28082,-0.3394 6.44851,-1.01819 9.50307,-1.81011l0.67879,3.84648c0,0 -8.14549,2.71516 -21.26878,2.71516c-13.12329,0 -21.26878,-2.71516 -21.26878,-2.71516z" fill="#db20a5" fill-rule="nonzero" stroke="#db20a5" stroke-width="1.2" stroke-linecap="round" stroke-linejoin="round"/><g fill-rule="nonzero" stroke="#db20a5" stroke-width="0.96" stroke-linecap="round" stroke-linejoin="round"><path d="M228.89211,192.14516c0.56566,5.09093 3.50709,9.38994 6.78791,13.01016h-3.62022l-0.90505,3.39395c0,0 -7.91923,-8.03236 -7.91923,-16.40411z" fill="#ff7bd0"/><path d="M223.23552,192.14516v-3.95961h5.65659v3.95961z" fill="#ffffff"/><path d="M228.89211,188.18555l11.20005,-0.11313v4.18588c0,1.35758 -3.73335,1.47071 -6.67478,1.01819c-1.58385,-0.22626 -3.05456,-0.56566 -4.52527,-1.13132z" fill="#ffc0ec"/><path d="M228.89211,188.18555c2.1495,-0.79192 4.41214,-1.35758 6.67478,-1.81011c3.62022,-0.3394 4.52527,0.45253 4.52527,1.69698c0,1.24445 -3.16769,1.58385 -5.88285,1.35758c-1.81011,-0.22626 -3.50709,-0.67879 -5.31719,-1.24445z" fill="#ff7bd0"/><path d="M223.23552,192.14516c-1.47071,0.56566 -2.94143,0.90505 -4.52527,1.13132c-2.94143,0.45253 -6.67478,0.3394 -6.67478,-1.01819v-4.18588l11.20005,0.11313z" fill="#ffc0ec"/><path d="M217.91833,189.43c-2.71516,0.22626 -5.88285,-0.11313 -5.88285,-1.35758c0,-1.24445 0.90505,-2.03637 4.52527,-1.69698c2.26264,0.45253 4.52527,1.01819 6.67478,1.81011c-1.69698,0.56566 -3.50709,1.01819 -5.31719,1.24445z" fill="#ff7bd0"/><path d="M229.00524,192.14516c0,8.37175 -7.35357,16.40411 -7.35357,16.40411l-1.24445,-3.39395h-3.95961c3.28082,-3.62022 6.22225,-7.91923 6.78791,-13.01016z" fill="#ffc0ec"/></g></g></g></svg>