<svg version="1.1" xmlns="http://www.w3.org/2000/svg" xmlns:xlink="http://www.w3.org/1999/xlink" width="45.32482" height="18.07494" viewBox="0,0,45.32482,18.07494"><g transform="translate(-207.67947,-174.49406)"><g data-paper-data="{&quot;isPaintingLayer&quot;:true}" fill="none" fill-rule="evenodd" stroke="#000000" stroke-linecap="butt" stroke-linejoin="miter" stroke-miterlimit="10" stroke-dasharray="" stroke-dashoffset="0" style="mix-blend-mode: normal"><path d="M229.69647,182.41657h2.76109" stroke-width="2.128"/><path d="M213.61786,183.53153c0,-4.40363 3.51492,-7.97347 7.8508,-7.97347c4.33587,0 7.8508,3.56984 7.8508,7.97347c0,4.40363 -3.51492,7.97347 -7.8508,7.97347c-4.33587,0 -7.8508,-3.56984 -7.8508,-7.97347z" stroke-width="2.128"/><path d="M232.43538,183.53153c0,-4.40363 3.51492,-7.97347 7.8508,-7.97347c4.33587,0 7.8508,3.56984 7.8508,7.97347c0,4.40363 -3.51492,7.97347 -7.8508,7.97347c-4.33587,0 -7.8508,-3.56984 -7.8508,-7.97347z" stroke-width="2.128"/><path d="M208.384,179.08303l5.05645,3.33354" stroke-width="2.56"/><path d="M252.20654,179.29704l-3.91431,3.11952" stroke-width="2.56"/></g></g></svg>