<svg version="1.1" xmlns="http://www.w3.org/2000/svg" xmlns:xlink="http://www.w3.org/1999/xlink" width="52.2521" height="101.70208" viewBox="0,0,52.2521,101.70208"><g transform="translate(-205.98647,-143.87149)"><g data-paper-data="{&quot;isPaintingLayer&quot;:true}" stroke-miterlimit="10" stroke-dasharray="" stroke-dashoffset="0" style="mix-blend-mode: normal"><g fill-rule="nonzero" stroke="none" stroke-width="1" stroke-linecap="butt" stroke-linejoin="miter"><path d="M213.37774,238.93562h-2.38953c0,0 -3.11822,-8.60209 -3.77532,-23.21024c-0.41815,-9.35582 -1.18278,-34.91106 0.11952,-47.98778c0.62154,-6.40806 1.8538,-12.74198 3.67977,-18.91511h2.38946c-1.25452,7.26214 -3.10632,19.03478 -3.10632,26.88321c-0.09563,19.03478 -1.08723,39.14636 3.08243,63.22992z" fill="#eaadcb"/><path d="M257.61857,215.72538c-0.23741,7.7954 -1.11244,15.55809 -2.61643,23.21024h-2.21026c1.94742,-25.19623 2.27002,-49.27988 1.94742,-63.22992c-0.1792,-7.84843 -2.04297,-19.60909 -3.32138,-26.88321h2.50897c1.77456,6.18086 2.97443,12.51293 3.58414,18.91511c1.25452,13.07672 0.52568,38.63196 0.10753,47.98778z" fill="#fcdbeb"/><path d="M252.73212,238.99545h-11.46937c-2.3665,-7.52374 -3.79504,-15.31156 -4.25331,-23.18627c-0.71678,-10.76766 -2.06686,-31.0228 -3.26155,-45.46343h-2.6165c-0.43013,15.8524 -2.11463,36.86126 -2.52088,45.46343c-0.29709,7.83389 -1.5571,15.60123 -3.75143,23.12644h-11.43358c-4.21744,-24.08357 -3.22583,-44.19514 -3.1302,-63.22992c0.04778,-7.84843 1.91155,-19.62107 3.10632,-26.88321h37.94463c1.27833,7.27412 3.14211,19.03478 3.32138,26.88321c0.32252,13.95005 0.02389,38.03369 -1.93551,63.28976z" fill="#f7c1d8"/></g><path d="M253.92688,149.27711h-43.01032l0.69584,-4.78562h20.80332h21.11525z" fill="#da53d6" fill-rule="nonzero" stroke="#da53d6" stroke-width="1.24" stroke-linecap="round" stroke-linejoin="round"/><g fill="none" fill-rule="evenodd" stroke="#db20a5" stroke-width="1.643" stroke-linecap="round" stroke-linejoin="round"><path d="M226.44804,157.65193c-1.2236,-0.27498 -2.04506,-1.42738 -1.9073,-2.67564c0.13784,-1.24818 1.1909,-2.19302 2.44496,-2.19372c2.21389,0.04561 4.31755,0.97614 5.84226,2.58427c0,0 -3.39304,3.09866 -6.37992,2.28509z"/><path d="M232.82796,155.36684c0,0 -0.16729,4.21133 -4.25331,9.28408"/><path d="M232.82796,155.36684c1.52463,-1.60812 3.62829,-2.53866 5.84218,-2.58427c1.3527,-0.14209 2.56424,0.84086 2.7061,2.19542c0.14186,1.35456 -0.8397,2.5678 -2.19232,2.70981c-2.96299,0.7777 -6.35596,-2.32096 -6.35596,-2.32096z"/><path d="M237.08119,164.65092c-4.08602,-5.07275 -4.25323,-9.28408 -4.25323,-9.28408"/></g><g stroke="#da53d6" stroke-width="1.24" stroke-linecap="round" stroke-linejoin="round"><path d="M223.98691,244.95357h-12.24599l-0.71684,-6.01792h13.83499z" fill="#f7c1d8" fill-rule="nonzero"/><path d="M254.44061,244.95357h-12.55662l-0.62126,-6.01792h13.73941z" fill="#f7c1d8" fill-rule="nonzero"/><path d="M236.81835,170.2979h-8.75739" fill="#f7c1d8" fill-rule="nonzero"/><path d="M257.61857,215.78522c-0.23741,7.79532 -1.11244,15.55809 -2.61643,23.21024h-13.73939c-2.3665,-7.52374 -3.79504,-15.31156 -4.25331,-23.18627c-0.71678,-10.76766 -2.06686,-31.0228 -3.26155,-45.46343h-2.6165c-0.43013,15.8524 -2.11463,36.86126 -2.52088,45.46343c-0.29709,7.83389 -1.5571,15.60123 -3.75143,23.12644h-13.87088c0,0 -3.11822,-8.60209 -3.77532,-23.21024c-0.41815,-9.35582 -1.18278,-34.91106 0.11952,-47.98778c0.62548,-6.40845 1.86169,-12.74237 3.69168,-18.91511h42.90282c1.77456,6.18086 2.97443,12.51293 3.58414,18.91511c1.25452,13.07672 0.52568,38.63196 0.10753,48.04762z" fill="none" fill-rule="evenodd"/></g><path d="M220.50807,199.52611c0.73433,0.70604 1.17096,1.89686 1.16091,3.16623c-0.09022,1.14544 -0.52723,2.17555 -1.19453,2.8158" fill="none" fill-rule="evenodd" stroke="#ea9dc5" stroke-width="1.24" stroke-linecap="round" stroke-linejoin="round"/><path d="M246.75853,199.52611c0.74724,0.69475 1.19732,1.88758 1.19469,3.16623c-0.09029,1.14544 -0.52731,2.17555 -1.19469,2.8158" fill="none" fill-rule="evenodd" stroke="#ea9dc5" stroke-width="1.24" stroke-linecap="round" stroke-linejoin="round"/></g></g></svg>