<svg version="1.1" xmlns="http://www.w3.org/2000/svg" xmlns:xlink="http://www.w3.org/1999/xlink" width="51.38122" height="99.94614" viewBox="0,0,51.38122,99.94614"><g transform="translate(-206.8864,-145.85472)"><g data-paper-data="{&quot;isPaintingLayer&quot;:true}" stroke-miterlimit="10" stroke-dashoffset="0" style="mix-blend-mode: normal"><g fill-rule="nonzero" stroke="none" stroke-width="1" stroke-linecap="butt" stroke-linejoin="miter" stroke-dasharray=""><path d="M210.54514,178.28633c1.04681,18.87014 2.03282,49.5281 2.26409,66.87453h-2.58053l-0.93732,-41.11696c0,-5.94874 -1.76499,-23.14889 -1.76499,-35.70464c0,-12.87264 3.80994,-15.67636 3.80994,-15.67636v-6.16819l2.6901,0.256l-0.27996,6.15598c0,0 -4.27249,5.37577 -3.20134,25.37963z" fill="#a2c3f4"/><path d="M257.59115,204.06824c0,6.48508 -2.43448,41.11696 -2.43448,41.11696h-2.09363c0.96158,-16.50525 2.0084,-49.69872 1.83801,-66.87453c-0.20694,-20.97903 -3.35959,-25.14797 -3.35959,-25.14797l-0.23128,-6.19253c1.60681,-0.10973 2.53184,-0.19511 2.53184,-0.19511l0.13391,5.89998c0,0 3.23781,3.34013 3.65168,14.10388c0.51124,12.83609 -0.03647,30.80424 -0.03647,37.28932z" fill="#d7e6ff"/><path d="M253.06304,245.16086h-12.59833c0,0 -2.89703,-34.93664 -3.23788,-39.06903c-0.46255,-5.53433 -4.54024,-33.42513 -4.54024,-33.42513c0,0 -1.80154,25.78199 -2.59273,33.97368c-0.63294,6.61915 -5.39233,38.52048 -5.39233,38.52048h-11.89229c-0.23128,-17.34642 -1.26596,-48.00439 -2.26409,-66.87453c-1.07116,-20.00386 3.20134,-25.37963 3.20134,-25.37963l0.27996,-6.15598c3.87083,0.31697 11.49062,0.90207 19.15918,0.90207c7.66855,0 14.52157,-0.40227 18.07589,-0.65827l0.27996,6.16819c0,0 3.15265,4.14461 3.35959,25.12363c0.17039,17.17573 -0.87643,50.3692 -1.83801,66.87453z" fill="#b8d0ff"/></g><g stroke="#1062c4" stroke-linecap="round" stroke-linejoin="round"><path d="M232.68658,172.6667l0.01221,-25.03833" fill="#b8d0ff" fill-rule="nonzero" stroke-width="1.28" stroke-dasharray=""/><path d="M236.33827,154.27193v7.31405c0,4.3884 -3.1039,5.14419 -3.1039,5.14419" fill="none" fill-rule="evenodd" stroke-width="1.28" stroke-dasharray=""/><path d="M218.81016,153.80877c0,0 -1.66762,11.34893 -11.19853,11.34893" fill="none" fill-rule="evenodd" stroke-width="0.848" stroke-dasharray="2.56"/><path d="M216.74087,153.1627c0,0 -1.07116,9.97141 -8.97099,9.97141" fill="none" fill-rule="evenodd" stroke-width="1.28" stroke-dasharray=""/><path d="M257.54247,165.15769c-5.92432,-0.52642 -10.52568,-5.39599 -10.72384,-11.34893" fill="none" fill-rule="evenodd" stroke-width="0.848" stroke-dasharray="2.56"/><path d="M257.38421,163.01225c-7.32778,-0.6949 -8.87362,-9.47169 -8.87362,-9.47169" fill="none" fill-rule="evenodd" stroke-width="1.28" stroke-dasharray=""/><path d="M257.59115,204.0439c0,6.48508 -2.43448,41.11696 -2.43448,41.11696h-14.69196c0,0 -2.89703,-34.93664 -3.23788,-39.06903c-0.46255,-5.53433 -4.54024,-33.42513 -4.54024,-33.42513c0,0 -1.80154,25.78199 -2.59273,33.97368c-0.63294,6.61915 -5.39233,38.52048 -5.39233,38.52048h-14.47281l-0.93732,-41.11696c0,-5.94874 -1.76499,-23.14889 -1.76499,-35.70464c0,-12.87264 3.80994,-15.67636 3.80994,-15.67636v-6.16819l2.6901,0.256c3.87083,0.31697 11.53938,0.87765 19.20794,0.87765c7.66855,0 14.5215,-0.40227 18.07581,-0.6582c1.60681,-0.10973 2.53184,-0.19511 2.53184,-0.19511l0.13391,5.89998c0,0 3.23781,3.34013 3.65168,14.10388c0.51124,12.83609 -0.03647,30.77982 -0.03647,37.26498z" fill="none" fill-rule="evenodd" stroke-width="1.28" stroke-dasharray=""/></g><g stroke="#1062c4" stroke-linecap="round" stroke-linejoin="round" stroke-dasharray=""><path d="M233.18561,147.62837v6.36322c-6.67042,0.15848 -21.84928,-1.32868 -21.84928,-1.32868v-6.16819c12.82961,1.13365 21.84928,1.13365 21.84928,1.13365z" fill="#a2c3f4" fill-rule="nonzero" stroke-width="1.28"/><path d="M253.79334,146.81169l0.13391,5.89998c-9.14137,2.06006 -22.17792,1.21896 -22.17792,1.21896v-6.31439c7.35777,0.24692 14.7237,-0.0219 22.044,-0.80455z" fill="#a2c3f4" fill-rule="nonzero" stroke-width="1.28"/><path d="M234.09857,150.55401c0,-0.67324 0.54497,-1.219 1.21723,-1.219c0.67226,0 1.21723,0.54576 1.21723,1.219c0,0.67324 -0.54497,1.219 -1.21723,1.219c-0.67226,0 -1.21723,-0.54576 -1.21723,-1.219z" fill="none" fill-rule="evenodd" stroke-width="0.848"/></g><path d="M218.74927,199.2166c1.09679,0.69055 1.76316,1.89638 1.76499,3.19378c-0.13399,1.15097 -0.76594,2.18497 -1.72844,2.82813" fill="none" fill-rule="evenodd" stroke="#8fbcf2" stroke-width="1.28" stroke-linecap="round" stroke-linejoin="round" stroke-dasharray=""/><path d="M246.40475,199.2166c1.0881,0.69437 1.74149,1.9018 1.72852,3.19378c-0.1275,1.15326 -0.76106,2.18977 -1.72852,2.82813" fill="none" fill-rule="evenodd" stroke="#8fbcf2" stroke-width="1.28" stroke-linecap="round" stroke-linejoin="round" stroke-dasharray=""/></g></g></svg>