<svg version="1.1" xmlns="http://www.w3.org/2000/svg" xmlns:xlink="http://www.w3.org/1999/xlink" width="75.80471" height="66.59533" viewBox="0,0,75.80471,66.59533"><g transform="translate(-194.765,-154.10467)"><g data-paper-data="{&quot;isPaintingLayer&quot;:true}" stroke-miterlimit="10" stroke-dasharray="" stroke-dashoffset="0" style="mix-blend-mode: normal"><g><path d="M252.95156,217.95569c-6.59135,1.38932 -13.30642,2.10775 -20.0425,2.14431c-8.24259,0 -19.18726,-1.48738 -22.76937,-2.97477c-0.49972,-9.8863 -0.34651,-19.7948 0.45861,-29.66092c0.9668,-12.90306 -1.80965,-25.48385 -2.47897,-29.4626c2.22405,-1.28237 4.6582,-2.15951 7.18902,-2.59053c1.35104,3.3838 5.92475,12.81629 17.55113,12.81629c11.62639,0 16.31165,-9.43249 17.55113,-12.81629c1.69579,0.3214 3.35626,0.80709 4.95795,1.4502c-2.23371,3.39713 -3.51761,7.33014 -3.71846,11.39088c0,8.76317 1.40062,19.13768 1.56175,26.97123c0.12395,5.92475 -0.12395,17.41479 -0.26029,22.73219z" fill="#ffee26" fill-rule="nonzero" stroke="none" stroke-width="1" stroke-linecap="butt" stroke-linejoin="miter"/><path d="M255.13306,187.46431c0.82677,9.84388 1.00895,19.73129 0.54537,29.59895c-0.88612,0.34689 -1.79781,0.62454 -2.72687,0.83046c0.13634,-5.3174 0.38424,-16.74547 0.26029,-22.67021c-0.16113,-7.83356 -1.56175,-18.20806 -1.56175,-26.97123c0.20085,-4.06074 1.48475,-7.99375 3.71846,-11.39088c0.79694,0.31072 1.56437,0.69236 2.29305,1.14033c-0.66932,3.97875 -3.45817,16.55954 -2.52855,29.4626z" fill="#fff8bb" fill-rule="nonzero" stroke="none" stroke-width="1" stroke-linecap="butt" stroke-linejoin="miter"/><path d="M215.35792,155.42358c1.10314,-0.22311 3.45817,-0.58256 4.8216,-0.70651c0,0 2.05755,9.1722 12.72953,9.1722c10.67198,0 12.82869,-9.08544 12.82869,-9.08544c1.35104,0.11155 3.6193,0.39664 4.72244,0.61974c-1.28907,3.3838 -5.92475,12.82869 -17.55113,12.82869c-11.61399,0 -16.24967,-9.38292 -17.55113,-12.82869z" fill="#ff7bd0" fill-rule="nonzero" stroke="none" stroke-width="1" stroke-linecap="butt" stroke-linejoin="miter"/><path d="M255.13306,187.52629c0.82677,9.84388 1.00895,19.73129 0.54537,29.59895c-3.56972,1.48738 -14.52679,2.97477 -22.76937,2.97477c-8.24259,0 -19.18726,-1.48738 -22.76937,-2.97477c-0.47498,-9.88793 -0.29694,-19.79643 0.53298,-29.66092c0.9668,-12.90306 -1.80965,-25.48385 -2.47897,-29.4626c2.22405,-1.28237 4.6582,-2.15951 7.18902,-2.59053c1.09075,-0.22311 3.45817,-0.58256 4.80921,-0.70651c0,0 2.05755,9.1722 12.72953,9.1722c10.67198,0 12.82869,-9.08544 12.82869,-9.08544c1.35104,0.11155 3.60691,0.39664 4.71005,0.61974c2.53424,0.43291 4.97213,1.30988 7.20142,2.59053c-0.66932,3.97875 -3.45817,16.55954 -2.52855,29.52458z" fill="none" fill-rule="evenodd" stroke="#db20a5" stroke-width="1.2" stroke-linecap="round" stroke-linejoin="round"/><path d="M211.62707,166.83925c0.63214,4.71005 -1.07835,22.63303 -1.07835,22.63303c-5.10297,-0.13225 -10.18414,-0.7171 -15.18371,-1.74768c0,0 2.59053,-11.3537 4.12749,-17.31563c1.35104,-4.63568 3.33422,-9.91589 8.67641,-12.39487c1.83497,2.62655 3.02018,5.65119 3.45817,8.82515z" fill="#ffffff" fill-rule="nonzero" stroke="#db20a5" stroke-width="1.2" stroke-linecap="round" stroke-linejoin="round"/><path d="M257.64921,158.0141c5.32979,2.47897 7.31297,7.75919 8.60204,12.39487c1.64852,5.91235 3.71846,17.26605 3.71846,17.26605c-4.82911,1.04918 -9.74745,1.6344 -14.68792,1.74768c0,0 -1.72289,-17.92298 -1.09075,-22.63303c0.4428,-3.15743 1.62794,-6.16488 3.45817,-8.77557z" fill="#ffffff" fill-rule="nonzero" stroke="#db20a5" stroke-width="1.2" stroke-linecap="round" stroke-linejoin="round"/></g><g stroke-linecap="butt" stroke-linejoin="miter"><path d="M223.53854,199.23944c0.28707,1.80915 1.49333,3.33926 3.18548,4.04073c3.99115,1.4378 6.73041,2.47897 8.35414,4.95795c1.05356,1.67331 1.57415,4.48694 -0.18592,4.48694c-1.32625,0 -1.4378,-1.33865 -2.97477,-2.82603c-1.53696,-1.48738 -3.96636,-1.9336 -6.90394,-2.99956c-3.59823,-1.2128 -6.03506,-4.56957 -6.07349,-8.36654h0.18592c1.26643,0.18824 2.44567,-0.68577 2.63391,-1.95219c0.18824,-1.26643 -0.68577,-2.44567 -1.95219,-2.63391c0.27665,-0.57388 0.61759,-1.11446 1.01638,-1.61133c0.81393,0.85657 2.14373,0.95911 3.0793,0.2374c0.93565,-0.72163 1.17421,-2.03383 0.5524,-3.03864c0.54149,-0.26533 1.10058,-0.49315 1.67331,-0.68172c0.21385,1.17809 1.29402,1.9964 2.48608,1.88336c1.19197,-0.11312 2.09903,-1.11984 2.08763,-2.31718c0,-0.06197 0,-0.18592 0,-0.18592c0.65792,0.01892 1.31303,0.09354 1.95839,0.22311c-0.24591,0.70411 -0.13411,1.48383 0.29987,2.09035c0.43399,0.6066 1.13587,0.96424 1.88162,0.95878c0.82195,-0.00537 1.58026,-0.44341 1.99557,-1.15272c0.44564,0.35532 0.83798,0.77278 1.16512,1.23949c0.65709,-1.99574 0.8645,-4.11212 0.60735,-6.19743c-0.05322,-1.57183 -0.74386,-3.05434 -1.91286,-4.1065c-1.169,-1.05208 -2.7158,-1.58324 -4.28458,-1.47119c-3.24746,0 -3.49535,1.49978 -4.95795,3.30943c-0.79228,1.03497 -1.80395,1.88154 -2.96237,2.47897l0.60735,-3.24746c-0.32227,0.40903 -2.13192,2.68969 -3.07393,3.60691c-0.42581,-0.04074 -0.83062,-0.20435 -1.16512,-0.47101c-1.54936,-1.22709 -1.59894,-3.45817 0,-5.32979c2.11068,-2.57111 4.9158,-4.48141 8.08145,-5.50332c3.42098,-1.10314 8.54006,-0.63214 11.40328,1.89641c2.86321,2.52855 4.84639,6.20983 4.57371,12.14697c-0.27269,5.93714 -1.17751,10.25056 -1.59894,13.63436h-5.57769c0,0 0.03718,-0.7189 0.14874,-1.80965c0.13634,-1.74768 -2.1815,-1.87163 -2.47897,0c-0.27269,1.48738 -0.27269,1.79726 -0.27269,1.79726h-4.72244c0,0 0.04958,-0.53298 0.16113,-1.87163c0.03082,-0.68453 -0.49918,-1.26444 -1.18371,-1.29526c-0.68453,-0.03082 -1.26444,0.49918 -1.29526,1.18371c-0.19832,1.26428 -0.29748,1.98318 -0.29748,1.98318h-2.47897" fill="#14be48" fill-rule="nonzero" stroke="#14601e" stroke-width="0.795"/><path d="M220.7387,197.81328c-0.43704,0.42771 -1.02605,0.66428 -1.63753,0.65767h-0.18592c0,-0.17353 0,-0.35945 0,-0.54537c-0.01008,-1.36509 0.29533,-2.71398 0.89243,-3.94157c0.96688,0.29929 1.62546,1.1942 1.62373,2.20629c-0.00653,0.61148 -0.25575,1.19528 -0.69271,1.62298z" fill="#14601e" fill-rule="nonzero" stroke="#14601e" stroke-width="0.795"/><path d="M224.75323,190.68698c-0.00702,0.92722 -0.56595,1.76106 -1.42103,2.11977c-0.85508,0.35879 -1.84163,0.17336 -2.50814,-0.47125c0.96895,-1.20313 2.19224,-2.1767 3.58212,-2.85082c0.23104,0.37185 0.35135,0.80178 0.34706,1.23949z" fill="#14601e" fill-rule="nonzero" stroke="#14601e" stroke-width="0.795"/><path d="M226.10427,188.86493c1.31939,-0.41638 2.6944,-0.62958 4.07791,-0.63214h0.47101c0,0.06197 0,0.18592 0,0.18592c0,1.27328 -1.03216,2.30545 -2.30545,2.30545c-1.09257,-0.01347 -2.02739,-0.78815 -2.24347,-1.85923z" fill="#14601e" fill-rule="nonzero" stroke="#14601e" stroke-width="0.795"/><path d="M234.84266,191.49264c-0.7427,0.00405 -1.44144,-0.35193 -1.87477,-0.95515c-0.43332,-0.60322 -0.54761,-1.37897 -0.30673,-2.08159c1.50639,0.27789 2.9204,0.92524 4.1151,1.88402c-0.41531,0.70932 -1.17363,1.14735 -1.99557,1.15272z" fill="#14601e" fill-rule="nonzero" stroke="#14601e" stroke-width="0.795"/><path d="M220.94801,182.35763c0,-0.68455 0.55494,-1.23949 1.23949,-1.23949c0.68455,0 1.23949,0.55494 1.23949,1.23949c0,0.68455 -0.55494,1.23949 -1.23949,1.23949c-0.68455,0 -1.23949,-0.55494 -1.23949,-1.23949z" fill="#14601e" fill-rule="nonzero" stroke="#14601e" stroke-width="0.6"/><path d="M242.84974,187.55108c0.02702,0.43754 0.02702,0.87632 0,1.31386" fill="none" fill-rule="evenodd" stroke="#d3ff7d" stroke-width="1.59"/><path d="M238.16448,177.8335c2.09994,1.38062 3.5974,3.50709 4.18947,5.94954c0.13634,0.54537 0.2479,1.06596 0.32227,1.57415" fill="none" fill-rule="evenodd" stroke="#d3ff7d" stroke-width="1.59"/></g></g></g></svg>