<svg version="1.1" xmlns="http://www.w3.org/2000/svg" xmlns:xlink="http://www.w3.org/1999/xlink" width="72.04949" height="63.30366" viewBox="0,0,72.04949,63.30366"><g transform="translate(-194.94192,-157.21942)"><g data-paper-data="{&quot;isPaintingLayer&quot;:true}" stroke-miterlimit="10" stroke-dasharray="" stroke-dashoffset="0" style="mix-blend-mode: normal"><g><path d="M250.22986,217.88671c-6.25957,1.31938 -12.63664,2.00166 -19.03367,2.03638c-7.82769,0 -18.22147,-1.41252 -21.62327,-2.82503c-0.47457,-9.38867 -0.32907,-18.79843 0.43552,-28.16794c0.91814,-12.25358 -1.71856,-24.20112 -2.35419,-27.9796c2.1121,-1.21782 4.42373,-2.05081 6.82717,-2.46014c1.28304,3.21347 5.62653,12.17119 16.6677,12.17119c11.04118,0 15.4906,-8.95771 16.6677,-12.17119c1.61043,0.30523 3.18733,0.76646 4.70839,1.3772c-2.12127,3.22614 -3.34054,6.96118 -3.53129,10.81752c0,8.32208 1.33012,18.17439 1.48315,25.61364c0.11771,5.62653 -0.11771,16.53822 -0.24719,21.58797z" fill="#ffee26" fill-rule="nonzero" stroke="none" stroke-width="1" stroke-linecap="butt" stroke-linejoin="miter"/><path d="M252.30155,188.93011c0.78514,9.34839 0.95815,18.73812 0.51792,28.10908c-0.84152,0.32943 -1.70731,0.59311 -2.58962,0.78865c0.12948,-5.04975 0.3649,-15.90258 0.24719,-21.52911c-0.15303,-7.43925 -1.48315,-17.29156 -1.48315,-25.61364c0.19074,-3.85634 1.41002,-7.59139 3.53129,-10.81752c0.75682,0.29508 1.48562,0.65751 2.17763,1.08293c-0.63563,3.77849 -3.2841,15.72602 -2.40128,27.9796z" fill="#fff8bb" fill-rule="nonzero" stroke="none" stroke-width="1" stroke-linecap="butt" stroke-linejoin="miter"/><path d="M214.5285,158.50214c1.04762,-0.21188 3.2841,-0.55324 4.57891,-0.67095c0,0 1.95398,8.71052 12.08879,8.71052c10.13481,0 12.18295,-8.62812 12.18295,-8.62812c1.28304,0.10593 3.43713,0.37667 4.48474,0.58855c-1.22418,3.21347 -5.62653,12.18295 -16.6677,12.18295c-11.0294,0 -15.43174,-8.91063 -16.6677,-12.18295z" fill="#ff7bd0" fill-rule="nonzero" stroke="none" stroke-width="1" stroke-linecap="butt" stroke-linejoin="miter"/><path d="M252.30155,188.98896c0.78514,9.34839 0.95815,18.73812 0.51792,28.10908c-3.39004,1.41252 -13.79558,2.82503 -21.62327,2.82503c-7.82769,0 -18.22147,-1.41252 -21.62327,-2.82503c-0.45107,-9.39022 -0.282,-18.79998 0.50615,-28.16794c0.91814,-12.25358 -1.71856,-24.20112 -2.35419,-27.9796c2.1121,-1.21782 4.42373,-2.05081 6.82717,-2.46014c1.03584,-0.21188 3.2841,-0.55324 4.56714,-0.67095c0,0 1.95398,8.71052 12.08879,8.71052c10.13481,0 12.18295,-8.62812 12.18295,-8.62812c1.28304,0.10593 3.42535,0.37667 4.47297,0.58855c2.40668,0.41112 4.72187,1.24394 6.83893,2.46014c-0.63563,3.77849 -3.2841,15.72602 -2.40128,28.03846z" fill="#ffffff" fill-rule="evenodd" stroke="#db20a5" stroke-width="1.2" stroke-linecap="round" stroke-linejoin="round"/><path d="M210.98544,169.34321c0.60032,4.47297 -1.02407,21.49379 -1.02407,21.49379c-4.84612,-0.12559 -9.67153,-0.681 -14.41945,-1.65971c0,0 2.46014,-10.78222 3.91974,-16.44405c1.28304,-4.40234 3.16639,-9.41678 8.23968,-11.77098c1.74261,2.49434 2.86816,5.36673 3.2841,8.38093z" fill="#ffffff" fill-rule="nonzero" stroke="#db20a5" stroke-width="1.2" stroke-linecap="round" stroke-linejoin="round"/><path d="M254.69106,160.96228c5.06152,2.35419 6.94488,7.36863 8.16905,11.77098c1.56554,5.61476 3.53129,16.39697 3.53129,16.39697c-4.58603,0.99637 -9.25681,1.55214 -13.94861,1.65971c0,0 -1.63616,-17.02083 -1.03584,-21.49379c0.42052,-2.9985 1.546,-5.85456 3.2841,-8.33385z" fill="#ffffff" fill-rule="nonzero" stroke="#db20a5" stroke-width="1.2" stroke-linecap="round" stroke-linejoin="round"/></g><g stroke="#ffffff" stroke-linecap="butt" stroke-linejoin="miter"><path d="M224.12472,198.80541c0.29304,1.8468 1.5244,3.40874 3.25176,4.1248c4.07419,1.46772 6.87045,2.53055 8.52796,5.0611c1.07548,1.70812 1.6069,4.5803 -0.18979,4.5803c-1.35385,0 -1.46772,-1.3665 -3.03666,-2.88483c-1.56894,-1.51833 -4.04888,-1.97383 -7.04759,-3.06197c-3.6731,-1.23803 -6.16063,-4.66465 -6.19985,-8.54061h0.18979c1.29277,0.19215 2.49656,-0.70003 2.68871,-1.99281c0.19215,-1.29277 -0.70003,-2.49656 -1.99281,-2.68871c0.28241,-0.58582 0.63044,-1.13765 1.03753,-1.64486c0.83086,0.87439 2.18834,0.97907 3.14337,0.24234c0.95511,-0.73664 1.19864,-2.07615 0.56389,-3.10187c0.55276,-0.27085 1.12348,-0.50341 1.70812,-0.6959c0.2183,1.2026 1.32095,2.03794 2.53781,1.92254c1.21677,-0.11548 2.1427,-1.14313 2.13106,-2.36539c0,-0.06326 0,-0.18979 0,-0.18979c0.67161,0.01932 1.34035,0.09549 1.99914,0.22775c-0.25103,0.71876 -0.1369,1.5147 0.30611,2.13385c0.44302,0.61923 1.1595,0.9843 1.92077,0.97873c0.83905,-0.00548 1.61314,-0.45263 2.03709,-1.17671c0.45491,0.36271 0.85541,0.78886 1.18936,1.26528c0.67076,-2.03726 0.88249,-4.19768 0.61999,-6.32638c-0.05432,-1.60454 -0.75933,-3.11789 -1.95266,-4.19194c-1.19332,-1.07397 -2.7723,-1.61618 -4.37372,-1.5018c-3.31502,0 -3.56808,1.53098 -5.0611,3.37829c-0.80876,1.05651 -1.84148,1.92069 -3.02401,2.53055l0.61999,-3.31502c-0.32897,0.41754 -2.17627,2.74565 -3.13788,3.68195c-0.43466,-0.04159 -0.8479,-0.2086 -1.18936,-0.4808c-1.58159,-1.25262 -1.63221,-3.53012 0,-5.44069c2.1546,-2.6246 5.01808,-4.57465 8.2496,-5.61782c3.49216,-1.1261 8.71775,-0.64529 11.64054,1.93587c2.92279,2.58116 4.94723,6.33903 4.66887,12.3997c-0.27836,6.06067 -1.20201,10.46383 -1.63221,13.91803h-5.69374c0,0 0.03796,-0.73386 0.15183,-1.8473c0.13918,-1.78404 -2.22689,-1.91057 -2.53055,0c-0.27836,1.51833 -0.27836,1.83465 -0.27836,1.83465h-4.8207c0,0 0.05061,-0.54407 0.16449,-1.91057c0.03146,-0.69877 -0.50957,-1.29075 -1.20834,-1.32221c-0.69877,-0.03146 -1.29075,0.50957 -1.32221,1.20834c-0.20244,1.29058 -0.30367,2.02444 -0.30367,2.02444h-2.53055" fill="#ffffff" fill-rule="nonzero" stroke-width="0.795"/><path d="M221.26663,197.34958c-0.44614,0.4366 -1.0474,0.6781 -1.6716,0.67136h-0.18979c0,-0.17714 0,-0.36693 0,-0.55672c-0.01029,-1.39349 0.30147,-2.77045 0.911,-4.02358c0.987,0.30552 1.65928,1.21905 1.65751,2.25219c-0.00666,0.6242 -0.26107,1.22015 -0.70712,1.65675z" fill="#ffffff" fill-rule="nonzero" stroke-width="0.795"/><path d="M225.36469,190.07501c-0.00717,0.94651 -0.57772,1.7977 -1.4506,2.16387c-0.87287,0.36626 -1.87995,0.17697 -2.56033,-0.48106c0.98911,-1.22816 2.23785,-2.22199 3.65665,-2.91013c0.23585,0.37958 0.35866,0.81846 0.35428,1.26528z" fill="#ffffff" fill-rule="nonzero" stroke-width="0.795"/><path d="M226.74384,188.21505c1.34684,-0.42505 2.75046,-0.64268 4.16276,-0.64529h0.4808c0,0.06326 0,0.18979 0,0.18979c0,1.29978 -1.05364,2.35341 -2.35341,2.35341c-1.1153,-0.01375 -2.06957,-0.80455 -2.29015,-1.89791z" fill="#ffffff" fill-rule="nonzero" stroke-width="0.795"/><path d="M235.66403,190.89744c-0.75815,0.00413 -1.47143,-0.35925 -1.91377,-0.97502c-0.44234,-0.61577 -0.559,-1.40766 -0.31311,-2.1249c1.53773,0.28367 2.98116,0.94449 4.20072,1.92322c-0.42395,0.72408 -1.19805,1.17122 -2.03709,1.17671z" fill="#ffffff" fill-rule="nonzero" stroke-width="0.795"/><path d="M221.48029,181.57235c0,-0.69879 0.56648,-1.26528 1.26528,-1.26528c0.69879,0 1.26528,0.56648 1.26528,1.26528c0,0.69879 -0.56648,1.26528 -1.26528,1.26528c-0.69879,0 -1.26528,-0.56648 -1.26528,-1.26528z" fill="#ffffff" fill-rule="nonzero" stroke-width="0.6"/><path d="M243.83771,186.87386c0.02758,0.44664 0.02758,0.89455 0,1.34119" fill="none" fill-rule="evenodd" stroke-width="1.59"/><path d="M239.05497,176.9541c2.14363,1.40935 3.67225,3.58006 4.27663,6.07332c0.13918,0.55672 0.25306,1.08814 0.32897,1.6069" fill="none" fill-rule="evenodd" stroke-width="1.59"/></g></g></g></svg>