<svg version="1.1" xmlns="http://www.w3.org/2000/svg" xmlns:xlink="http://www.w3.org/1999/xlink" width="63.77104" height="19.32567" viewBox="0,0,63.77104,19.32567"><g transform="translate(-201.12,-172.53683)"><g data-paper-data="{&quot;isPaintingLayer&quot;:true}" fill-rule="nonzero" stroke="none" stroke-width="1" stroke-linecap="butt" stroke-linejoin="miter" stroke-miterlimit="10" stroke-dasharray="" stroke-dashoffset="0" style="mix-blend-mode: normal"><g><g><path d="M221.67863,181.22308c-1.57136,-0.93095 -5.8926,-3.19183 -8.24964,-4.38876c-0.26189,-3.19183 1.83325,-4.25577 3.14272,-3.5908c2.48799,1.72891 5.10692,3.19183 7.8568,4.65475c-1.17852,0.79796 -2.09515,1.99489 -2.74988,3.32482z" fill="#acff74"/><path d="M221.54769,181.62206c-0.13095,0 -0.13095,0 -0.26189,0c-1.70231,-0.93095 -5.8926,-3.19183 -8.1187,-4.38876c-0.13095,-0.13299 -0.26189,-0.26599 -0.26189,-0.39898c-0.13095,-1.72891 0.39284,-3.19183 1.44041,-3.85679c0.78568,-0.53197 1.70231,-0.53197 2.48799,-0.26599c2.61893,1.72891 5.23787,3.32482 7.8568,4.65475c0.13095,0.13299 0.26189,0.26599 0.26189,0.39898c0,0.13299 0,0.39898 -0.26189,0.53197c-1.04757,0.79796 -1.9642,1.8619 -2.61893,3.05883c-0.13095,0.13299 -0.26189,0.26599 -0.52379,0.26599zM213.95278,176.43534c2.22609,1.06394 5.63071,3.05883 7.46396,3.98978c0.52379,-0.93095 1.30947,-1.72891 2.09515,-2.39387c-2.48799,-1.32993 -4.84503,-2.79285 -7.20207,-4.38876c-0.39284,-0.13299 -0.91663,-0.13299 -1.30947,0.13299c-0.78568,0.53197 -1.04757,1.46292 -1.04757,2.65985z" fill="#149948"/></g><path d="M224.29757,191.8625c-3.01177,0 -6.15449,-0.39898 -9.03532,-1.19693c-2.35704,-0.53197 -4.71408,-1.06394 -7.33302,-1.32993c-2.61893,-0.26599 -6.54733,-1.19693 -6.54733,-2.52686l-0.13095,-3.45781c0,-0.26599 0.13095,-0.39898 0.26189,-0.53197c0.13095,-0.13299 0.39284,-0.13299 0.52379,0c1.9642,1.32993 4.84503,1.72891 7.46396,2.12788c1.04757,0.13299 1.9642,0.26599 2.74988,0.39898c3.79745,0.79796 8.38059,1.72891 8.38059,1.72891c1.17852,0.13299 2.35704,0.13299 3.53556,0.13299c1.57136,0 3.14272,-0.66496 4.32124,-1.59591c1.04757,-0.66496 1.83325,-1.59591 2.48799,-2.79285c0.13095,-0.13299 0.26189,-0.26599 0.52379,-0.26599c0.26189,0 0.39284,0.26599 0.39284,0.39898v0.26599l0.13095,4.25577c0,0.13299 0,0.26599 -0.13095,0.39898c-1.44041,2.52686 -4.45219,3.98978 -7.59491,3.98978z" fill="#149948"/><g><path d="M231.23774,183.21797c-0.65473,1.19693 -1.57136,2.12788 -2.61893,2.92584c-1.30947,1.06394 -3.01177,1.72891 -4.71408,1.72891c-1.17852,0 -2.48799,0 -3.66651,-0.13299c-0.26189,-2.26088 0.13095,-4.52175 1.30947,-6.51664c0.78568,-1.32993 1.70231,-2.39387 2.88083,-3.32482c0.78568,0.26599 1.70231,0.66496 2.48799,0.79796c3.79745,0.79796 4.32124,3.32482 4.32124,4.52175z" fill="#ffffff"/><path d="M223.90473,188.40469c-1.30947,0 -2.48799,-0.13299 -3.66651,-0.26599c-0.26189,0 -0.39284,-0.26599 -0.52379,-0.39898c-0.26189,-2.39387 0.26189,-4.78774 1.44041,-6.91562c0.78568,-1.32993 1.70231,-2.52686 3.01177,-3.45781c0.13095,-0.13299 0.39284,-0.13299 0.52379,0c0.78568,0.39898 1.57136,0.66496 2.35704,0.79796c4.32124,0.93095 4.71408,3.98978 4.84503,4.92073c0,0.13299 0,0.13299 0,0.26599c-0.65473,1.32993 -1.57136,2.39387 -2.74988,3.19183c-1.57136,1.19693 -3.40461,1.8619 -5.23787,1.8619zM220.762,187.20775c1.04757,0.13299 2.09515,0.13299 3.14272,0.13299c1.57136,0 3.14272,-0.66496 4.45219,-1.59591c1.04757,-0.66496 1.83325,-1.59591 2.35704,-2.65985c0,-1.06394 -0.65473,-3.05883 -3.9284,-3.85679c-0.78568,-0.13299 -1.57136,-0.39898 -2.22609,-0.79796c-1.04757,0.79796 -1.83325,1.8619 -2.48799,2.92584c-1.04757,1.8619 -1.44041,3.85679 -1.30947,5.85168z" fill="#149948"/></g><g><path d="M220.23822,187.60673c0,0 -4.45219,-0.93095 -8.24964,-1.72891c-2.88083,-0.53197 -7.46396,-0.53197 -10.21384,-2.52686v-1.59591l-0.13095,-4.52175c0,-0.93095 0.26189,-1.72891 1.04757,-1.46292c0.78568,0.13299 2.61893,3.7238 4.97597,3.7238c2.22609,-0.13299 3.40461,-1.19693 4.05935,-3.32482c0.13095,-0.13299 0.78568,0.13299 1.57136,0.53197c2.35704,1.19693 6.67828,3.45781 8.24964,4.38876c-1.17852,1.99489 -1.57136,4.38876 -1.30947,6.51664z" fill="#14e148"/><path d="M220.23822,188.2717c-0.13095,0 -4.58313,-1.06394 -8.38059,-1.72891c-0.78568,-0.13299 -1.70231,-0.26599 -2.61893,-0.39898c-2.61893,-0.39898 -5.76165,-0.79796 -7.8568,-2.26088c-0.13095,-0.26599 -0.13095,-0.39898 -0.13095,-0.53197v-1.59591l-0.13095,-4.52175c0,-0.66496 0.13095,-1.46292 0.65473,-1.8619c0.13095,-0.13299 0.52379,-0.26599 1.04757,-0.13299c0.39284,0.13299 0.78568,0.53197 1.44041,1.32993c0.91663,1.06394 2.09515,2.52686 3.40461,2.52686c1.9642,0 2.88083,-0.93095 3.66651,-3.05883c0,-0.13299 0.13095,-0.26599 0.39284,-0.39898c0.13095,-0.13299 0.26189,-0.13299 1.83325,0.66496c2.48799,1.19693 6.94018,3.7238 8.24964,4.38876c0.13095,0.13299 0.26189,0.13299 0.26189,0.26599c0,0.13299 0,0.26599 0,0.39898c-1.04757,1.8619 -1.57136,4.12277 -1.17852,6.25066c0,0.13299 0,0.39898 -0.13095,0.39898c-0.26189,0.13299 -0.39284,0.26599 -0.52379,0.26599zM202.29852,183.08498c1.83325,1.19693 4.58313,1.59591 7.07112,1.8619c1.04757,0.13299 1.9642,0.26599 2.74988,0.39898c2.88083,0.53197 6.15449,1.32993 7.59491,1.59591c-0.13095,-1.99489 0.26189,-3.98978 1.17852,-5.71869c-1.70231,-0.93095 -5.49976,-3.05883 -7.72586,-4.12277c-0.52379,-0.13299 -0.91663,-0.26599 -1.04757,-0.39898c-0.91663,2.26088 -2.22609,3.19183 -4.45219,3.32482c-1.83325,0 -3.14272,-1.59591 -4.19029,-2.79285c-0.39284,-0.39898 -0.78568,-0.93095 -0.91663,-0.93095h-0.13095c-0.13095,0 -0.26189,0.39898 -0.26189,1.06394z" fill="#149948"/></g><path d="M213.03615,180.9571c-0.91663,0 -1.70231,-0.79796 -1.70231,-1.72891c0,-0.93095 0.78568,-1.72891 1.70231,-1.72891c0.91663,0 1.57136,0.79796 1.57136,1.72891c0,0.93095 -0.65473,1.72891 -1.57136,1.72891zM213.03615,178.29724c-0.52379,0 -1.04757,0.39898 -1.04757,0.93095c0,0.53197 0.39284,0.93095 0.91663,0.93095c0.52379,0 0.91663,-0.39898 0.91663,-0.93095c0,-0.53197 -0.26189,-0.93095 -0.78568,-0.93095z" fill="#149948"/><path d="M215.65508,182.28702c-0.91663,0 -1.70231,-0.79796 -1.70231,-1.72891c0,-0.93095 0.78568,-1.72891 1.70231,-1.72891c0.91663,0 1.70231,0.79796 1.70231,1.72891c0,0.93095 -0.78568,1.72891 -1.70231,1.72891zM215.65508,179.62717c-0.52379,0 -0.91663,0.39898 -0.91663,0.93095c0,0.53197 0.39284,0.93095 0.91663,0.93095c0.52379,0 0.91663,-0.39898 0.91663,-0.93095c0,-0.53197 -0.39284,-0.93095 -0.91663,-0.93095z" fill="#149948"/><path d="M218.40496,183.74994c-0.91663,0 -1.70231,-0.79796 -1.70231,-1.72891c0,-0.93095 0.78568,-1.72891 1.70231,-1.72891c0.91663,0 1.70231,0.79796 1.70231,1.72891c0,0.93095 -0.78568,1.72891 -1.70231,1.72891zM218.40496,181.09009c-0.52379,0 -0.91663,0.39898 -0.91663,0.93095c0,0.53197 0.39284,0.93095 0.91663,0.93095c0.52379,0 0.91663,-0.39898 0.91663,-0.93095c0,-0.53197 -0.39284,-0.93095 -0.91663,-0.93095z" fill="#149948"/><path d="M213.03615,179.62717h-0.13095c-0.26189,-0.13299 -0.26189,-0.39898 -0.26189,-0.53197c1.17852,-2.12788 2.88083,-3.98978 4.84503,-5.4527c0.13095,-0.13299 0.39284,-0.13299 0.52379,0.13299c0.13095,0.13299 0.13095,0.39898 -0.13095,0.53197c-1.83325,1.19693 -3.40461,3.05883 -4.58313,5.05372c-0.13095,0.13299 -0.13095,0.26599 -0.26189,0.26599z" fill="#149948"/><path d="M215.65508,180.9571h-0.13095c-0.13095,-0.13299 -0.26189,-0.26599 -0.13095,-0.53197c1.17852,-1.99489 2.61893,-3.85679 4.32124,-5.31971c0.13095,-0.13299 0.39284,-0.13299 0.52379,0c0.13095,0.13299 0.13095,0.39898 0,0.53197c-1.70231,1.46292 -3.14272,3.19183 -4.19029,5.18672c-0.13095,0.13299 -0.26189,0.13299 -0.39284,0.13299z" fill="#149948"/><path d="M218.40496,182.55301h-0.13095c-0.13095,-0.13299 -0.26189,-0.26599 -0.13095,-0.53197c1.04757,-1.99489 2.35704,-3.85679 4.05935,-5.31971c0.13095,-0.13299 0.39284,-0.13299 0.52379,0c0.13095,0.13299 0.13095,0.39898 0,0.53197c-1.57136,1.46292 -2.88083,3.19183 -3.9284,5.18672c-0.13095,0 -0.26189,0.13299 -0.39284,0.13299z" fill="#149948"/><path d="M209.76248,184.14892c-0.39284,0 -0.65473,0 -1.04757,-0.13299c-0.26189,0 -0.52379,-0.39898 -0.39284,-0.66496c0,-0.26599 0.26189,-0.53197 0.65473,-0.39898c0.26189,0 0.52379,0.13299 0.78568,0.13299c0.26189,0 0.52379,0.26599 0.52379,0.53197c0,0.26599 -0.26189,0.53197 -0.52379,0.53197z" fill="#acff74"/><path d="M207.27449,183.74994c-1.30947,-0.13299 -2.61893,-0.53197 -3.79745,-1.06394c-0.26189,-0.13299 -0.39284,-0.53197 -0.26189,-0.79796c0.13095,-0.26599 0.39284,-0.39898 0.65473,-0.26599c1.17852,0.53197 2.22609,0.93095 3.53556,1.06394c0.26189,0 0.52379,0.26599 0.39284,0.66496c0,0.26599 -0.26189,0.39898 -0.52379,0.39898z" fill="#acff74"/></g><g><g><path d="M254.54625,181.22308c-1.57136,-0.93095 -5.8926,-3.19183 -8.24964,-4.38876c-0.26189,-3.19183 1.83325,-4.25577 3.14272,-3.5908c2.48799,1.72891 5.10692,3.19183 7.8568,4.65475c-1.17852,0.79796 -2.09515,1.99489 -2.74988,3.32482z" fill="#acff74"/><path d="M254.54625,181.62206c-0.13095,0 -0.13095,0 -0.26189,0c-1.70231,-0.93095 -5.8926,-3.32482 -8.24964,-4.38876c-0.13095,-0.13299 -0.26189,-0.26599 -0.26189,-0.39898c-0.13095,-1.72891 0.39284,-3.19183 1.44041,-3.85679c0.78568,-0.53197 1.70231,-0.53197 2.48799,-0.26599c2.61893,1.72891 5.23787,3.32482 7.8568,4.65475c0.13095,0.13299 0.26189,0.26599 0.26189,0.39898c0,0.13299 0,0.39898 -0.26189,0.53197c-1.04757,0.79796 -1.9642,1.8619 -2.61893,3.05883c-0.13095,0.13299 -0.26189,0.26599 -0.39284,0.26599zM246.8204,176.43534c2.22609,1.06394 5.63071,3.05883 7.46396,3.98978c0.52379,-0.93095 1.30947,-1.72891 2.09515,-2.39387c-2.48799,-1.32993 -4.84503,-2.79285 -7.20207,-4.38876c-0.39284,-0.13299 -0.91663,-0.13299 -1.30947,0.13299c-0.78568,0.53197 -1.04757,1.46292 -1.04757,2.65985z" fill="#149948"/></g><g fill="#149948"><path d="M264.89104,187.60673c0,0.13299 0,0.26599 -0.13095,0.39898c-1.9642,2.52686 -4.84503,3.85679 -7.98775,3.85679c-3.01177,0 -6.02355,-0.39898 -8.90438,-1.19693c-2.35704,-0.53197 -4.84503,-1.06394 -7.20207,-1.32993c-2.48799,-0.26599 -6.41639,-1.19693 -6.41639,-2.52686l-0.13095,-3.45781c0,-0.26599 0.13095,-0.39898 0.26189,-0.53197c0.13095,-0.13299 0.39284,-0.13299 0.52379,0c1.9642,1.46292 4.84503,1.72891 7.33302,2.12788c1.04757,0.13299 1.9642,0.26599 2.88083,0.53197c3.79745,0.66496 8.24964,1.72891 8.24964,1.72891c1.17852,0 2.35704,0.13299 3.53556,0.13299c1.57136,0 3.01177,-0.66496 4.32124,-1.59591c1.04757,-0.79796 1.83325,-1.72891 2.48799,-2.79285c0.13095,-0.26599 0.39284,-0.26599 0.65473,-0.26599c0.26189,0.13299 0.39284,0.26599 0.39284,0.53197z"/></g><g><path d="M264.10536,183.21797c-0.65473,1.19693 -1.57136,2.12788 -2.61893,2.92584c-1.30947,1.06394 -3.01177,1.72891 -4.71408,1.72891c-1.17852,0 -2.48799,0 -3.66651,-0.13299c-0.26189,-2.26088 0.13095,-4.52175 1.30947,-6.51664c0.78568,-1.32993 1.70231,-2.39387 2.88083,-3.32482c0.78568,0.26599 1.70231,0.66496 2.48799,0.79796c3.79745,0.79796 4.32124,3.32482 4.32124,4.52175z" fill="#ffffff"/><path d="M256.77235,188.40469c-1.30947,0 -2.48799,-0.13299 -3.66651,-0.26599c-0.26189,0 -0.39284,-0.26599 -0.52379,-0.39898c-0.26189,-2.39387 0.13095,-4.78774 1.44041,-6.91562c0.78568,-1.32993 1.70231,-2.52686 3.01177,-3.45781c0.13095,-0.13299 0.39284,-0.13299 0.52379,0c0.78568,0.39898 1.57136,0.66496 2.35704,0.79796c4.32124,0.93095 4.71408,3.98978 4.84503,4.92073c0,0.13299 0,0.13299 0,0.26599c-0.65473,1.32993 -1.57136,2.39387 -2.74988,3.19183c-1.57136,1.19693 -3.40461,1.8619 -5.23787,1.8619zM253.62963,187.20775c1.04757,0.13299 2.09515,0.13299 3.14272,0.13299c1.57136,0 3.14272,-0.66496 4.45219,-1.59591c1.04757,-0.66496 1.83325,-1.59591 2.35704,-2.65985c0,-1.06394 -0.65473,-3.05883 -3.9284,-3.85679c-0.78568,-0.13299 -1.57136,-0.39898 -2.22609,-0.79796c-1.04757,0.79796 -1.83325,1.8619 -2.48799,2.92584c-1.04757,1.8619 -1.44041,3.85679 -1.30947,5.85168z" fill="#149948"/></g><g><path d="M253.23679,187.60673c0,0 -4.45219,-0.93095 -8.24964,-1.72891c-3.01177,-0.53197 -7.59491,-0.53197 -10.34479,-2.52686v-1.59591l-0.13095,-4.52175c0,-0.93095 0.26189,-1.72891 1.04757,-1.46292c0.78568,0.13299 2.61893,3.7238 4.97597,3.7238c2.22609,-0.13299 3.40461,-1.19693 4.05935,-3.32482c0.13095,-0.13299 0.65473,0.13299 1.70231,0.53197c2.35704,1.19693 6.54733,3.5908 8.1187,4.38876c-1.04757,1.99489 -1.57136,4.38876 -1.17852,6.51664z" fill="#14e148"/><path d="M253.10584,188.2717c-0.13095,0 -4.58313,-1.06394 -8.38059,-1.72891c-0.65473,-0.26599 -1.57136,-0.39898 -2.61893,-0.53197c-2.61893,-0.26599 -5.63071,-0.66496 -7.8568,-2.26088c-0.13095,-0.13299 -0.13095,-0.26599 -0.13095,-0.39898v-1.59591l-0.13095,-4.52175c0,-0.66496 0.13095,-1.46292 0.65473,-1.8619c0.26189,-0.13299 0.52379,-0.39898 1.04757,-0.13299c0.39284,0.13299 0.78568,0.53197 1.44041,1.32993c0.91663,1.06394 2.22609,2.52686 3.40461,2.52686c1.9642,0 2.88083,-0.93095 3.66651,-3.05883c0,-0.13299 0.13095,-0.26599 0.39284,-0.39898c0.13095,-0.13299 0.26189,-0.13299 1.83325,0.66496c2.35704,1.19693 6.54733,3.45781 8.24964,4.38876c0.13095,0.13299 0.26189,0.13299 0.26189,0.26599c0,0.13299 0,0.26599 0,0.39898c-1.04757,1.8619 -1.57136,4.12277 -1.17852,6.25066c0,0.13299 0,0.39898 -0.13095,0.39898c-0.26189,0.13299 -0.39284,0.26599 -0.52379,0.26599zM235.16614,183.08498c1.9642,1.19693 4.71408,1.59591 7.07112,1.8619c1.04757,0.13299 1.9642,0.26599 2.74988,0.39898c2.88083,0.53197 6.15449,1.32993 7.59491,1.59591c-0.13095,-1.99489 0.26189,-3.98978 1.17852,-5.71869c-1.9642,-0.93095 -5.63071,-2.92584 -7.72586,-3.98978c-0.52379,-0.26599 -0.91663,-0.39898 -1.04757,-0.53197c-0.91663,2.26088 -2.22609,3.19183 -4.45219,3.32482c-1.70231,0 -3.14272,-1.59591 -4.19029,-2.79285c-0.39284,-0.39898 -0.78568,-0.93095 -0.91663,-0.93095h-0.13095c-0.13095,0 -0.26189,0.39898 -0.26189,1.06394z" fill="#149948"/></g><path d="M245.90377,180.9571c-0.91663,0 -1.70231,-0.79796 -1.70231,-1.72891c0,-0.93095 0.78568,-1.72891 1.70231,-1.72891c0.91663,0 1.70231,0.79796 1.70231,1.72891c0,0.93095 -0.78568,1.72891 -1.70231,1.72891zM245.90377,178.29724c-0.52379,0 -0.91663,0.39898 -0.91663,0.93095c0,0.53197 0.39284,0.93095 0.91663,0.93095c0.52379,0 0.91663,-0.39898 0.91663,-0.93095c0,-0.53197 -0.39284,-0.93095 -0.91663,-0.93095z" fill="#149948"/><path d="M248.52271,182.28702c-0.91663,0 -1.70231,-0.79796 -1.70231,-1.72891c0,-0.93095 0.78568,-1.72891 1.70231,-1.72891c0.91663,0 1.70231,0.79796 1.70231,1.72891c0,0.93095 -0.78568,1.72891 -1.70231,1.72891zM248.52271,179.62717c-0.52379,0 -0.91663,0.39898 -0.91663,0.93095c0,0.53197 0.39284,0.93095 0.91663,0.93095c0.52379,0 0.91663,-0.39898 0.91663,-0.93095c0,-0.53197 -0.39284,-0.93095 -0.91663,-0.93095z" fill="#149948"/><path d="M251.27259,183.74994c-0.91663,0 -1.70231,-0.79796 -1.70231,-1.72891c0,-0.93095 0.78568,-1.72891 1.70231,-1.72891c0.91663,0 1.70231,0.79796 1.70231,1.72891c0,0.93095 -0.78568,1.72891 -1.70231,1.72891zM251.27259,181.09009c-0.52379,0 -0.91663,0.39898 -0.91663,0.93095c0,0.53197 0.39284,0.93095 0.91663,0.93095c0.52379,0 0.91663,-0.39898 0.91663,-0.93095c0,-0.53197 -0.39284,-0.93095 -0.91663,-0.93095z" fill="#149948"/><path d="M245.90377,179.62717c-0.39284,-0.13299 -0.39284,-0.39898 -0.39284,-0.53197c1.17852,-2.12788 2.88083,-3.98978 4.84503,-5.4527c0.13095,-0.13299 0.39284,-0.13299 0.52379,0.13299c0.13095,0.13299 0.13095,0.39898 -0.13095,0.53197c-1.83325,1.19693 -3.40461,3.05883 -4.58313,5.05372c-0.13095,0.13299 -0.13095,0.26599 -0.26189,0.26599z" fill="#149948"/><path d="M248.52271,180.9571h-0.13095c-0.13095,-0.13299 -0.26189,-0.26599 -0.13095,-0.53197c1.17852,-1.99489 2.61893,-3.85679 4.32124,-5.31971c0.13095,-0.13299 0.39284,-0.13299 0.52379,0c0.13095,0.13299 0.13095,0.39898 0,0.53197c-1.70231,1.46292 -3.14272,3.19183 -4.19029,5.18672c-0.13095,0.13299 -0.26189,0.13299 -0.39284,0.13299z" fill="#149948"/><path d="M251.27259,182.55301h-0.13095c-0.13095,-0.13299 -0.26189,-0.26599 -0.13095,-0.53197c1.04757,-1.99489 2.48799,-3.85679 4.05935,-5.31971c0.13095,-0.13299 0.39284,-0.13299 0.52379,0c0.13095,0.13299 0.13095,0.39898 0,0.53197c-1.57136,1.46292 -3.01177,3.19183 -3.9284,5.05372c-0.13095,0.13299 -0.26189,0.26599 -0.39284,0.26599z" fill="#149948"/><path d="M242.49916,184.28191c-0.39284,0 -0.65473,0 -1.04757,-0.13299c-0.13095,-0.13299 -0.39284,-0.39898 -0.26189,-0.66496c0,-0.26599 0.26189,-0.53197 0.65473,-0.39898c0.26189,0 0.52379,0.13299 0.78568,0.13299c0.26189,0 0.52379,0.26599 0.52379,0.53197c-0.13095,0.26599 -0.26189,0.53197 -0.65473,0.53197z" fill="#acff74"/><path d="M240.14212,183.88294c0,0 -0.13095,0 0,0c-1.30947,-0.26599 -2.61893,-0.53197 -3.79745,-1.06394c-0.26189,-0.26599 -0.39284,-0.53197 -0.26189,-0.79796c0.13095,-0.26599 0.39284,-0.39898 0.65473,-0.26599c1.04757,0.53197 2.22609,0.79796 3.40461,1.06394c0.26189,0 0.52379,0.26599 0.39284,0.66496c0,0.13299 -0.13095,0.39898 -0.39284,0.39898z" fill="#acff74"/></g></g></g></svg>