<?xml version="1.0" encoding="utf-8"?>
<svg version="1.1" width="78.13657501220703" height="40.200223236083986" viewBox="0.39142642974853514 -0.09522284507751466 78.13657501220703 40.200223236083986" xmlns="http://www.w3.org/2000/svg">
  <g id="ID0.8119435366243124">
    <g id="Page-1">
      <g id="shoes-b-[people,fashion,shoes]">
        <g id="Right-Shoe">
          <path id="Shape" fill="#FFD524" stroke="none" stroke-width="1" d="M 56.889 13.926 C 57.242 18.772 58.285 22.633 61.381 24.394 C 64.172 26.009 67.332 25.815 70.476 25.815 C 72.183 25.788 73.883 26.034 75.514 26.542 C 74.322 23.739 71.346 22.157 68.375 22.746 C 61.958 23.425 60.354 20.792 59.087 14.879 C 58.301 11.132 60.354 0.615 59.552 0.615 C 58.777 0.582 58.034 0.931 57.563 1.552 C 57.095 5.66 56.87 9.792 56.889 13.926 Z "/>
          <path id="Shape" fill="#E69724" stroke="none" stroke-width="1" d="M 70.476 25.815 C 67.268 25.815 64.172 25.993 61.381 24.394 C 58.285 22.633 57.242 18.74 56.889 13.926 C 56.867 9.765 57.092 5.606 57.563 1.472 C 56.51 2.711 55.836 4.232 55.622 5.849 C 55.349 8.192 53.184 8.385 52.301 6.512 C 51.036 3.963 48.425 2.378 45.596 2.441 C 42.997 2.441 40.527 3.087 40.783 4.395 C 41.813 8.626 42.351 12.963 42.388 17.318 C 42.388 21.002 40.912 25.686 41.634 31.114 C 44.088 31.292 54.066 32.018 55.879 32.228 C 58.076 32.503 58.654 33.052 60.547 34.975 C 62.151 36.59 65.135 36.396 70.172 36.138 C 72.411 36.08 74.633 35.727 76.781 35.088 C 77.058 32.176 76.617 29.241 75.498 26.542 C 73.872 26.035 72.178 25.79 70.476 25.815 Z "/>
          <path id="Shape" fill="#723E0A" stroke="#723E0A" stroke-width="1.28" stroke-linecap="round" stroke-linejoin="round" d="M 41.104 31.082 C 41.104 31.082 53.825 31.986 55.911 32.228 C 57.996 32.471 58.686 33.052 60.579 34.975 C 62.183 36.59 65.167 36.396 70.204 36.138 C 76.235 35.815 77.647 34.684 77.647 34.684 L 77.888 37.769 C 75.409 38.719 72.776 39.195 70.124 39.175 C 67.539 39.428 64.934 39.385 62.359 39.045 C 59.584 38.69 58.397 36.138 56.52 35.928 C 54.643 35.718 52.478 35.718 52.478 35.718 L 52.783 39.255 L 43.158 39.465 C 42.516 36.832 41.104 34.813 41.104 31.082 "/>
          <path id="Shape" fill="none" stroke="#723E0A" stroke-width="0.848" stroke-linecap="round" stroke-linejoin="round" d="M 42.099 12.085 C 42.099 12.085 42.388 12.876 43.174 14.782 C 44.184 17.205 44.778 21.502 47.826 21.438 C 51.13 21.438 51.034 17.222 52.766 14.055 C 54.371 11.18 56.681 10.162 58.926 12.262 "/>
          <path id="Shape" fill="none" stroke="#723E0A" stroke-width="0.848" stroke-linecap="round" stroke-linejoin="round" d="M 42.179 20.307 C 42.179 20.307 43.51 25.848 47.874 25.783 C 51.708 25.783 53.825 21.89 54.804 18.578 C 55.895 14.895 58.012 14.395 59.472 16.204 "/>
          <path id="Shape" fill="none" stroke="#723E0A" stroke-width="0.848" stroke-linecap="round" stroke-linejoin="round" d="M 47.056 12.02 C 47.538 15.136 47.795 18.284 47.826 21.438 C 47.938 26.72 48.034 31.582 48.034 31.582 "/>
          <path id="Shape" fill="none" stroke="#723E0A" stroke-width="1.28" stroke-linecap="round" stroke-linejoin="round" d="M 41.618 31.114 C 44.072 31.292 54.05 32.018 55.863 32.228 C 58.06 32.503 58.638 33.052 60.531 34.975 C 62.135 36.59 65.119 36.396 70.156 36.138 C 72.395 36.08 74.617 35.727 76.765 35.088 C 77.118 29.062 75.594 21.987 68.391 22.746 C 61.974 23.425 60.37 20.792 59.103 14.879 C 58.301 11.132 60.354 0.615 59.552 0.615 C 57.643 0.357 55.895 3.604 55.622 5.93 C 55.349 8.256 53.184 8.466 52.301 6.592 C 51.036 4.044 48.425 2.458 45.596 2.522 C 42.997 2.522 40.527 3.168 40.783 4.476 C 41.813 8.707 42.351 13.044 42.388 17.399 C 42.452 21.002 40.896 25.686 41.618 31.114 Z "/>
          <path id="Shape" fill="none" stroke="#FFFFFF" stroke-width="1.28" stroke-linecap="round" stroke-linejoin="round" d="M 72.995 28.077 L 73.717 28.206 "/>
          <path id="Shape" fill="none" stroke="#FFFFFF" stroke-width="1.28" stroke-linecap="round" stroke-linejoin="round" d="M 67.958 27.818 C 67.958 27.818 69.402 27.818 71.166 27.818 "/>
          <path id="Shape" fill="#E69724" stroke="#723E0A" stroke-width="1.28" stroke-linecap="round" stroke-linejoin="round" d="M 42.917 1.94 C 42.692 1.052 47.393 0.777 48.179 1.811 C 48.68 4.939 48.997 8.095 49.125 11.261 C 49.125 11.955 45.179 12.521 44.81 11.584 C 44.441 10.647 43.254 3.345 42.917 1.94 Z "/>
        </g>
        <g id="Left-Shoe">
          <path id="Shape" fill="#FFD524" stroke="none" stroke-width="1" d="M 27.555 13.829 C 27.764 18.675 28.694 22.568 31.758 24.426 C 34.485 26.042 37.661 26.042 40.789 26.042 C 42.425 26.081 44.046 26.358 45.602 26.865 C 44.461 24.112 41.597 22.504 38.672 22.972 C 32.255 23.441 30.795 20.775 29.64 14.895 C 28.902 11.115 31.245 0.68 30.491 0.551 C 29.733 0.496 28.994 0.808 28.501 1.391 C 27.938 5.514 27.622 9.668 27.555 13.829 Z"/>
          <path id="Shape" fill="#E69724" stroke="none" stroke-width="1" d="M 40.789 26.09 C 37.661 26.09 34.485 26.09 31.758 24.475 C 28.694 22.617 27.764 18.708 27.555 13.878 C 27.638 9.71 27.97 5.551 28.55 1.423 C 27.447 2.643 26.718 4.158 26.448 5.785 C 26.095 8.111 23.93 8.24 23.095 6.334 C 21.908 3.749 19.346 2.088 16.518 2.069 C 13.936 1.94 11.449 2.554 11.706 3.878 C 12.583 8.127 12.976 12.463 12.877 16.802 C 12.877 20.485 11.128 25.121 11.69 30.565 C 14.144 30.807 24.09 31.841 25.887 32.18 C 28.084 32.519 28.646 33.085 30.491 35.072 C 31.999 36.687 35.014 36.687 40.116 36.525 C 42.356 36.542 44.59 36.259 46.757 35.685 C 47.127 32.738 46.757 29.745 45.682 26.978 C 44.103 26.442 42.455 26.142 40.789 26.09 Z"/>
          <path id="Shape" fill="#723E0A" stroke="#723E0A" stroke-width="1.28" stroke-linecap="round" stroke-linejoin="round" d="M 11.112 30.5 C 11.112 30.5 23.817 31.808 25.871 32.115 C 27.924 32.422 28.63 33.02 30.475 35.007 C 31.983 36.622 34.998 36.622 40.1 36.461 C 46.147 36.315 47.575 35.249 47.575 35.249 L 47.735 38.27 C 45.207 39.13 42.541 39.508 39.875 39.385 C 37.287 39.559 34.687 39.435 32.127 39.013 C 29.368 38.577 28.261 35.992 26.368 35.782 C 25.038 35.6 23.699 35.487 22.357 35.443 L 22.55 38.981 L 12.925 38.981 C 12.315 36.396 11 34.328 11.032 30.597"/>
          <path id="Shape" fill="none" stroke="#723E0A" stroke-width="0.848" stroke-linecap="round" stroke-linejoin="round" d="M 12.732 11.552 C 12.732 11.552 13.005 12.359 13.727 14.282 C 14.658 16.737 15.187 21.05 18.171 21.082 C 21.475 21.082 21.555 16.963 23.352 13.862 C 24.956 11.035 27.363 10.082 29.56 12.246"/>
          <path id="Shape" fill="none" stroke="#723E0A" stroke-width="0.848" stroke-linecap="round" stroke-linejoin="round" d="M 12.604 19.774 C 12.604 19.774 13.759 25.347 18.139 25.428 C 21.956 25.428 24.202 21.712 25.277 18.433 C 26.48 14.782 28.678 14.346 30.009 16.204"/>
          <path id="Shape" fill="none" stroke="#723E0A" stroke-width="0.848" stroke-linecap="round" stroke-linejoin="round" d="M 17.705 11.648 C 18.088 14.778 18.243 17.93 18.171 21.082 C 18.171 26.348 18.074 31.227 18.074 31.227"/>
          <path id="Shape" fill="none" stroke="#723E0A" stroke-width="1.28" stroke-linecap="round" stroke-linejoin="round" d="M 11.674 30.565 C 14.128 30.807 24.074 31.841 25.871 32.18 C 28.068 32.519 28.63 33.085 30.475 35.072 C 31.983 36.687 34.998 36.687 40.1 36.525 C 42.34 36.542 44.574 36.259 46.741 35.685 C 47.27 29.676 45.971 22.552 38.72 23.085 C 32.303 23.554 30.844 20.888 29.689 15.008 C 28.951 11.228 31.293 0.793 30.539 0.664 C 28.63 0.357 26.785 3.539 26.448 5.865 C 26.111 8.192 23.93 8.321 23.095 6.415 C 21.908 3.83 19.346 2.169 16.518 2.15 C 13.936 2.021 11.449 2.635 11.706 3.959 C 12.583 8.208 12.976 12.544 12.877 16.882 C 12.813 20.485 11.112 25.121 11.674 30.565 Z"/>
          <path id="Shape" fill="none" stroke="#FFFFFF" stroke-width="1.28" stroke-linecap="round" stroke-linejoin="round" d="M 33.083 28.335 L 33.805 28.465 "/>
          <path id="Shape" fill="none" stroke="#FFFFFF" stroke-width="1.28" stroke-linecap="round" stroke-linejoin="round" d="M 28.014 28.077 C 28.014 28.077 29.458 28.077 31.126 28.077 "/>
          <path id="Shape" fill="#E69724" stroke="#723E0A" stroke-width="1.28" stroke-linecap="round" stroke-linejoin="round" d="M 13.855 1.439 C 13.663 0.551 18.379 0.405 19.133 1.439 C 19.514 4.58 19.702 7.741 19.695 10.905 C 19.695 11.6 15.716 12.036 15.395 11.099 C 15.075 10.162 14.208 2.845 13.855 1.439 Z"/>
        </g>
      </g>
    </g>
  </g>
</svg>