<svg version="1.1" xmlns="http://www.w3.org/2000/svg" xmlns:xlink="http://www.w3.org/1999/xlink" width="28.90677" height="27.84629" viewBox="0,0,28.90677,27.84629"><g transform="translate(-225.67161,-163.88935)"><g data-paper-data="{&quot;isPaintingLayer&quot;:true}" fill-rule="nonzero" stroke="none" stroke-width="0.59874" stroke-linecap="butt" stroke-linejoin="miter" stroke-miterlimit="10" stroke-dasharray="" stroke-dashoffset="0" style="mix-blend-mode: normal"><path d="M253.5632,170.88571l-16.64095,19.64172c-0.65997,0.77922 -1.53891,1.20821 -2.47534,1.20821c0,0 0,0 -0.00024,0c-0.58521,0 -1.16483,-0.173 -1.67619,-0.50097c-0.0469,-0.02903 -0.09882,-0.06604 -0.15074,-0.103l-0.03321,-0.02371c-0.02594,-0.01805 -0.05192,-0.03695 -0.07738,-0.05676c-0.2176,-0.16564 -0.42363,-0.36375 -0.60324,-0.58195l-5.25481,-6.38646c-1.33886,-1.6273 -1.30039,-4.22995 0.08609,-5.80224c0.65487,-0.74255 1.51702,-1.1515 2.42748,-1.1515c0.95711,0 1.84978,0.44512 2.51477,1.2528l2.79533,3.39715l14.132,-16.67974c0.6609,-0.78035 1.54132,-1.20991 2.47871,-1.20991c0.92969,0 1.80505,0.42361 2.46402,1.19355c1.36652,1.59539 1.37255,4.19894 0.01369,5.80281z" fill="#284a00"/><path d="M253.05135,170.2891l-16.64095,19.64172c-0.8903,1.05101 -2.23927,1.23725 -3.29468,0.56102c-0.04618,-0.02903 -0.09067,-0.06179 -0.13584,-0.09367c-0.02333,-0.01726 -0.04666,-0.03276 -0.06951,-0.05024c-0.17258,-0.13179 -0.33657,-0.28588 -0.48586,-0.46736l-5.25457,-6.38589c-1.06432,-1.29371 -1.03405,-3.35538 0.06826,-4.60507c1.10163,-1.24912 2.85761,-1.2133 3.92217,0.08041l3.30697,4.01859l14.65103,-17.29248c1.08043,-1.27538 2.83669,-1.28104 3.92241,-0.01296c1.08669,1.26859 1.09127,3.33026 0.01056,4.60592z" fill="#3cf300"/></g></g></svg>