<svg version="1.1" xmlns="http://www.w3.org/2000/svg" xmlns:xlink="http://www.w3.org/1999/xlink" width="26.47633" height="27.0042" viewBox="0,0,26.47633,27.0042"><g transform="translate(-226.69049,-166.4979)"><g data-paper-data="{&quot;isPaintingLayer&quot;:true}" fill="#dd2726" fill-rule="nonzero" stroke="#bc192d" stroke-width="1" stroke-linecap="butt" stroke-linejoin="miter" stroke-miterlimit="10" stroke-dasharray="" stroke-dashoffset="0" style="mix-blend-mode: normal"><path d="M251.76748,187.57444c1.22901,1.27221 1.194,3.29919 -0.07821,4.52911c-1.27221,1.2281 -3.3001,1.19309 -4.52911,-0.07912l-7.19401,-7.44863l-7.30223,7.34224c-1.2472,1.25402 -3.27463,1.25947 -4.52956,0.01182c-1.25356,-1.2472 -1.25947,-3.27463 -0.01182,-4.52956l7.39271,-7.43363l-7.28358,-7.54094c-1.22856,-1.27221 -1.19355,-3.29964 0.07912,-4.52911c1.27175,-1.22856 3.29964,-1.19309 4.52865,0.07912l7.19356,7.44818l7.30268,-7.34178c1.24765,-1.25402 3.27554,-1.25993 4.52956,-0.01273c1.25447,1.24765 1.25947,3.27554 0.01228,4.53002l-7.39362,7.43318z"/></g></g></svg>