<svg version="1.1" xmlns="http://www.w3.org/2000/svg" xmlns:xlink="http://www.w3.org/1999/xlink" width="87.81593" height="246.10876" viewBox="0,0,87.81593,246.10876"><g transform="translate(-196.00907,-56.93285)"><g data-paper-data="{&quot;isPaintingLayer&quot;:true}" fill-rule="nonzero" stroke-miterlimit="10" stroke-dasharray="" stroke-dashoffset="0" style="mix-blend-mode: normal"><g><g><path d="M259.53956,216.83763l4.18124,-0.51737c0,5.42276 -0.1022,30.81838 -0.41996,34.01199c-0.31856,3.19361 -1.92894,40.02876 -1.82036,41.19762c0.10778,1.16886 6.16687,0.9006 9.16408,1.77565c1.55928,0.45349 2.08144,1.14331 2.23393,1.68623c-5.40918,-0.47904 -11.79881,-0.4024 -13.26308,-1.75649c-0.97325,-0.90699 0.19082,-31.32297 0.7513,-42.26429c0.26747,-5.29501 -0.67465,-30.23075 -0.82715,-34.13335z" fill="#ffc9c2" stroke="none" stroke-width="1" stroke-linecap="butt" stroke-linejoin="miter"/><path d="M274.43777,299.6736c0.79521,1.04112 0.63633,2.86787 -1.11377,2.79122c-1.7501,-0.07665 -2.70499,-0.63872 -5.42196,-0.86866c-3.2008,-0.21397 -6.41198,-0.1988 -9.61038,0.04471c-3.95848,0.3513 -7.94172,0.31936 -7.94172,-3.08503c0,-4.07505 0.4008,-4.97565 -0.04471,-9.37006c-0.60519,-6.04232 -3.47465,-22.77686 -3.88902,-34.70181c-0.16527,-4.9501 -2.88862,-22.38724 -3.92655,-35.55131l17.03713,-2.09501c0.1525,3.9026 1.09461,28.83834 0.82715,34.13335c-0.55968,10.96687 -1.72455,41.35731 -0.7513,42.26429c1.46427,1.35409 7.8539,1.27106 13.26308,1.75649c0.08942,0.27385 0.08942,0.56926 0,0.84311l-3.26467,2.16527c0,0 3.57685,0 4.83673,1.67345z" fill="#f8b1a4" stroke="none" stroke-width="1" stroke-linecap="butt" stroke-linejoin="miter"/><path d="M269.62659,297.9746c0,0 3.57605,0 4.8495,1.67345c0.79521,1.04112 0.63633,2.86787 -1.11377,2.79122c-1.7501,-0.07665 -2.70499,-0.63872 -5.42276,-0.86866c-3.2,-0.21397 -6.41118,-0.1988 -9.60959,0.04471c-3.95848,0.3513 -7.94252,0.31936 -7.94252,-3.08503c0,-4.07505 0.4016,-4.97565 -0.04391,-9.37006c-0.60519,-6.04232 -3.47545,-22.77686 -3.88902,-34.70181c-0.16527,-4.9501 -2.88942,-22.38724 -3.92655,-35.55131l21.21837,-2.61238c0,5.42276 -0.1022,30.81838 -0.42076,34.01199c-0.31776,3.19361 -1.92814,40.02876 -1.81956,41.19762c0.10778,1.16886 6.22994,0.89421 9.16408,1.77565c2.93413,0.88144 2.22116,2.55489 2.22116,2.55489z" fill="none" stroke="#5e154d" stroke-width="1.2" stroke-linecap="round" stroke-linejoin="round"/><path d="M269.46052,295.26002c0,0 2.17086,-0.14691 3.44351,0.57485c1.07545,0.62595 1.50818,1.57126 1.27266,3.53214c0,0 -1.20878,-1.25828 -4.52455,-1.36687" fill="#f8b1a4" stroke="#5e154d" stroke-width="1.2" stroke-linecap="round" stroke-linejoin="round"/></g><g><path d="M232.81859,253.52587c0.66826,-4.503 1.20878,-28.84472 1.38044,-37.20561h4.06707c0,5.42276 -1.90339,34.01199 -2.22116,37.20561c-0.31856,3.19361 -5.3014,36.83515 -5.1992,38.00401c0.1014,1.16886 6.15968,0.9006 9.15769,1.77565c1.54012,0.45349 2.07425,1.12415 2.23393,1.66068c-4.89421,-1.10499 -12.25789,-0.76008 -13.39641,-1.52016c-1.43234,-0.95808 2.94611,-32.93255 3.97765,-39.92018z" fill="#ffc9c2" stroke="none" stroke-width="1" stroke-linecap="butt" stroke-linejoin="miter"/><path d="M243.815,299.6736c0.79601,1.04112 0.63713,2.86787 -1.11297,2.79122c-1.7501,-0.07665 -2.70499,-0.63872 -5.42276,-0.86866c-3.2024,-0.21397 -6.41597,-0.1988 -9.61597,0.04471c-3.95848,0.3513 -7.93613,0.31936 -7.93613,-3.08503c0,-4.07505 0.51577,-6.76408 0.51577,-11.17765c0,-5.03314 -1.33014,-29.54093 -1.48902,-34.49103c-0.15968,-4.9501 -2.17645,-31.34213 -1.50898,-36.56688h16.94133c-0.17166,8.36088 -0.74411,32.70261 -1.38044,37.20561c-1.03154,6.98763 -5.40998,38.96209 -3.97765,39.92018c1.13932,0.76008 8.5022,0.41517 13.39641,1.52016c0.09261,0.28184 0.09261,0.58683 0,0.86866l-3.26467,2.16527c0,0 3.58244,0 4.85509,1.67345z" fill="#f8b1a4" stroke="none" stroke-width="1" stroke-linecap="butt" stroke-linejoin="miter"/><path d="M238.97907,297.9746c0,0 3.58244,0 4.85509,1.67345c0.79601,1.04112 0.63633,2.86787 -1.11377,2.79122c-1.7501,-0.07665 -2.70419,-0.63872 -5.42196,-0.86866c-3.2024,-0.21397 -6.41597,-0.1988 -9.61597,0.04471c-3.95848,0.3513 -7.93613,0.31936 -7.93613,-3.08503c0,-4.07505 0.51577,-6.76408 0.51577,-11.17765c0,-5.03314 -1.33014,-29.54093 -1.48902,-34.49103c-0.15968,-4.9501 -2.17725,-31.34213 -1.50898,-36.56688h21.00201c0,5.42276 -1.90339,34.01199 -2.22116,37.20561c-0.31856,3.19361 -5.3014,36.83515 -5.1992,38.00401c0.1014,1.16886 6.22356,0.89421 9.15769,1.77565c2.93333,0.88144 2.22116,2.55489 2.22116,2.55489z" fill="none" stroke="#5e154d" stroke-width="1.2" stroke-linecap="round" stroke-linejoin="round"/><path d="M238.83216,295.26002c0,0 2.202,-0.14691 3.43713,0.57485c1.06268,0.63872 1.5018,1.57126 1.27266,3.53214c0,0 -1.20958,-1.27745 -4.52535,-1.36687" fill="#f8b1a4" stroke="#5e154d" stroke-width="1.2" stroke-linecap="round" stroke-linejoin="round"/></g><g><path d="M221.07407,205.51307c-0.33054,3.59601 -0.4519,8.93573 -0.49022,12.88943c-1.27106,-0.22755 -2.52455,-0.5493 -3.7485,-0.96447c-0.27066,-4.30739 -0.27066,-8.62675 0,-12.93414c0.45828,-6.22755 3.00439,-9.68943 3.00439,-9.68943h4.03433l-0.22914,0.67705c-0.36886,1.5521 -2.16367,5.63354 -2.57086,10.02156z" fill="#fff2bb" stroke="none" stroke-width="1" stroke-linecap="butt" stroke-linejoin="miter"/><path d="M263.7711,217.43803c0,0 -7.72615,2.90619 -21.21837,1.49461c0,0 -0.63633,-10.27705 -2.23952,-10.27705c-1.60399,0 -2.24032,10.27705 -2.24032,10.27705c-5.81557,0.68423 -11.69981,0.50539 -17.46348,-0.53014c0.03832,-3.94731 0.15968,-9.29342 0.49022,-12.88943c0.38164,-4.38803 2.1509,-8.46947 2.54531,-10.02156l0.22914,-0.67705h36.86708c0,0 2.53333,3.46188 3.00439,9.68943c0.27545,4.30659 0.28423,8.62675 0.02555,12.93414z" fill="#ffffff" stroke="none" stroke-width="1" stroke-linecap="butt" stroke-linejoin="miter"/><path d="M263.74555,217.43803c0,0 -7.72615,2.90619 -21.21837,1.49461c0,0 -0.63633,-10.27705 -2.23952,-10.27705c-1.60399,0 -2.24032,10.27705 -2.24032,10.27705c-13.49222,1.41158 -21.21199,-1.49461 -21.21199,-1.49461c-0.27066,-4.30739 -0.27066,-8.62675 0,-12.93414c0.45828,-6.22755 3.00439,-9.68943 3.00439,-9.68943h40.90142c0,0 2.53333,3.46188 3.00439,9.68943c0.26667,4.30739 0.26667,8.62675 0,12.93414z" fill="none" stroke="#5e154d" stroke-width="1.2" stroke-linecap="round" stroke-linejoin="round"/></g><g><path d="M202.66209,210.16936c0,0 -0.16527,1.2519 -0.33693,2.71457c0.15888,-1.4499 0.33693,-2.71457 0.33693,-2.71457z" fill="#f8b1a4" stroke="none" stroke-width="1" stroke-linecap="butt" stroke-linejoin="miter"/><path d="M201.00779,205.51307c-1.11856,2.49182 -2.42475,4.89342 -3.90739,7.18563c-0.27465,-0.17725 -0.46627,-0.45828 -0.53174,-0.77924c-0.06627,-0.32016 -0.0008,-0.65469 0.18124,-0.92615c0.69381,-1.39242 1.65509,-2.71457 2.92775,-5.53134c1.18323,-2.63154 4.29541,-24.64832 5.2503,-28.95969c0.95489,-4.31138 3.23912,-24.17566 8.64272,-32.2555c2.01916,-3.08583 5.22156,-5.19441 8.84551,-5.82515l-0.19721,3.32775c-3.21757,1.15609 -5.92336,3.41956 -7.63673,6.38723c-3.43633,5.86986 -5.46667,15.32935 -8.80799,34.17167c-3.34132,18.84232 -3.9521,21.07785 -4.76647,23.2048z" fill="#ffc9c2" stroke="none" stroke-width="1" stroke-linecap="butt" stroke-linejoin="miter"/><path d="M204.56548,216.58214c0.0024,0.01916 0.0024,0.03832 0,0.05749c0.03114,-1.28383 0.44551,-6.28503 0.44551,-6.28503c0,0 -0.11497,3.99202 -0.44551,6.22755z" fill="#f8b1a4" stroke="none" stroke-width="1" stroke-linecap="butt" stroke-linejoin="miter"/><path d="M222.27647,141.79408l-1.06268,17.98644c0,0 -4.40399,14.49901 -5.77885,19.32137c-1.80759,6.31697 -7.13374,24.7058 -6.79042,26.4048c0.34331,1.699 1.8012,4.73932 2.25309,7.39641c0.34331,2.02475 -1.82675,2.36966 -2.29142,0.92615c-0.2986,-0.93892 -1.31098,-3.54491 -1.31098,-3.54491c0,0 0,3.34052 -0.26747,6.10619c-0.20998,2.18443 -2.4495,1.87785 -2.41836,0.26826c0.00319,-0.01916 0.00319,-0.03832 0,-0.05749c0.31856,-2.23553 0.43273,-6.22755 0.43273,-6.22755c0,0 -0.44551,5.00759 -0.44551,6.28503c-0.33693,1.89062 -2.54531,1.83313 -2.54531,-0.198c0,-0.84311 0.13333,-2.28024 0.28024,-3.55769c0.17166,-1.43713 0.33693,-2.71457 0.33693,-2.71457c0,0 -0.17804,1.26467 -0.33693,2.71457c-0.12774,1.07944 -0.26108,2.29302 -0.32495,3.19361c-0.10778,1.52016 -2.38643,1.5521 -2.30978,-0.28743c0.05749,-1.27106 0.52774,-6.06787 0.52774,-6.06787c-0.31936,1.04351 -0.87186,2.0008 -1.61597,2.79761c-0.39521,0.3984 -1.00998,0.47505 -1.48902,0.18523c1.47705,-2.301 2.77685,-4.71138 3.88823,-7.21118c0.81437,-2.12695 1.42515,-4.36248 4.76647,-23.2048c3.34132,-18.84232 5.37166,-28.30181 8.80799,-34.17167c1.73573,-2.96208 4.46228,-5.20958 7.69422,-6.34252z" fill="#f8b1a4" stroke="none" stroke-width="1" stroke-linecap="butt" stroke-linejoin="miter"/><path d="M223.45411,138.26833l-2.28503,21.49302c0,0 -4.40399,14.49901 -5.77885,19.32137c-1.80679,6.31697 -7.10819,24.69941 -6.79042,26.4048c0.31856,1.70539 1.8012,4.73932 2.25309,7.39641c0.34331,2.02475 -1.82675,2.36966 -2.29142,0.92615c-0.2986,-0.93892 -1.31098,-3.54491 -1.31098,-3.54491c0,0 0,3.34052 -0.26667,6.10619c-0.20998,2.17166 -2.45669,1.87785 -2.41198,0.26826c0,-1.27745 0.43912,-6.28503 0.43912,-6.28503c0,0 -0.10858,3.99202 -0.42635,6.22755c-0.28024,1.95449 -2.54611,1.91617 -2.54611,-0.14052c0,-1.8012 0.63633,-6.27226 0.63633,-6.27226c0,0 -0.50858,3.83234 -0.63633,5.92735c-0.10778,1.52016 -2.38643,1.5521 -2.30978,-0.28743c0.05669,-1.27745 0.52774,-6.06787 0.52774,-6.06787c-0.31936,1.04351 -0.87266,2.0008 -1.61597,2.79761c-0.92934,0.90699 -2.59721,0 -1.83952,-1.52016c0.69381,-1.39242 1.65429,-2.71457 2.92775,-5.53134c1.18323,-2.63154 4.29541,-24.64832 5.2503,-28.95969c0.95409,-4.31138 3.23912,-24.17566 8.64192,-32.2555c2.79441,-4.17086 6.56128,-5.51218 9.87066,-6.00399" fill="none" stroke="#5e154d" stroke-width="1.2" stroke-linecap="round" stroke-linejoin="round"/></g><g><path d="M277.6753,212.88394c-0.17166,-1.46268 -0.33772,-2.71457 -0.33772,-2.71457c0,0 0.17884,1.26467 0.33772,2.71457z" fill="#f8b1a4" stroke="none" stroke-width="1" stroke-linecap="butt" stroke-linejoin="miter"/><path d="M274.22619,182.30827c-3.34132,-18.84232 -5.37166,-28.30181 -8.80799,-34.17167c-1.71178,-2.96926 -4.41837,-5.23274 -7.63673,-6.38723l-0.198,-3.32775c3.62475,0.63074 6.82715,2.73932 8.84631,5.82515c5.4036,8.07984 7.68783,27.94413 8.64272,32.2555c0.95409,4.31138 4.06627,26.32816 5.2503,28.95969c1.27266,2.81677 2.23393,4.13892 2.92775,5.53134c0.18124,0.27146 0.24671,0.60599 0.18124,0.92615c-0.06627,0.32096 -0.25709,0.602 -0.53174,0.77924c-1.47785,-2.301 -2.77765,-4.71138 -3.88823,-7.21118c-0.83353,-2.1014 -1.44511,-4.33693 -4.78563,-23.17925z" fill="#ffc9c2" stroke="none" stroke-width="1" stroke-linecap="butt" stroke-linejoin="miter"/><path d="M274.99585,210.35459c0,0 0.40719,5.0012 0.43912,6.28503c-0.00319,-0.01916 -0.00319,-0.03832 0,-0.05749c-0.33054,-2.23553 -0.43912,-6.22755 -0.43912,-6.22755z" fill="#f8b1a4" stroke="none" stroke-width="1" stroke-linecap="butt" stroke-linejoin="miter"/><path d="M265.4182,148.1366c3.43633,5.86986 5.46667,15.32935 8.80799,34.17167c3.34052,18.84232 3.9521,21.04592 4.77286,23.2048c1.11058,2.4998 2.41118,4.91018 3.88823,7.21118c-0.47984,0.28743 -1.09301,0.21158 -1.48902,-0.18523c-0.74411,-0.79681 -1.29661,-1.75409 -1.61677,-2.79761c0,0 0.47106,4.79681 0.52854,6.06787c0.08303,1.83952 -2.202,1.80759 -2.31058,0.28743c-0.06307,-0.9006 -0.19721,-2.11417 -0.32415,-3.19361c-0.15888,-1.4499 -0.33772,-2.71457 -0.33772,-2.71457c0,0 0.16607,1.27745 0.33772,2.71457c0.14611,1.27745 0.28024,2.71457 0.28024,3.55769c0,2.03114 -2.20838,2.08862 -2.54611,0.198c-0.03194,-1.27745 -0.43912,-6.28503 -0.43912,-6.28503c0,0 0.10858,3.99202 0.42635,6.22755c-0.0024,0.01916 -0.0024,0.03832 0,0.05749c0,1.60958 -2.20838,1.91617 -2.41836,-0.26826c-0.26108,-2.76567 -0.26108,-6.10619 -0.26108,-6.10619c0,0 -1.01796,2.60599 -1.31737,3.54491c-0.46387,1.44351 -2.63473,1.0986 -2.29062,-0.92615c0.4519,-2.65709 1.90898,-5.69741 2.25309,-7.39641c0.34331,-1.699 -4.94531,-20.107 -6.73374,-26.39203c-1.37405,-4.82236 -5.77805,-19.32137 -5.77805,-19.32137l-1.06347,-17.98644c3.20799,1.14092 5.91058,3.38284 7.63114,6.32974z" fill="#f8b1a4" stroke="none" stroke-width="1" stroke-linecap="butt" stroke-linejoin="miter"/><path d="M256.53357,138.30027c3.31577,0.49182 7.07705,1.83313 9.87066,6.00399c5.4036,8.07984 7.68783,27.94413 8.64272,32.2555c0.95489,4.31138 4.06627,26.32816 5.2503,28.95969c1.27266,2.81677 2.23393,4.13892 2.92775,5.53134c0.75689,1.52016 -0.91018,2.42715 -1.83952,1.52016c-0.74411,-0.79681 -1.29661,-1.75409 -1.61677,-2.79761c0,0 0.47106,4.79042 0.52854,6.06787c0.07665,1.83952 -2.202,1.80759 -2.31058,0.28743c-0.12695,-2.09501 -0.63633,-5.92735 -0.63633,-5.92735c0,0 0.63633,4.47106 0.63633,6.27226c0,2.05669 -2.27146,2.09501 -2.54531,0.14052c-0.31776,-2.23553 -0.43273,-6.22755 -0.43273,-6.22755c0,0 0.41357,5.00759 0.44551,6.28503c0.03832,1.60958 -2.20838,1.90339 -2.41836,-0.26826c-0.26747,-2.76567 -0.26747,-6.10619 -0.26747,-6.10619c0,0 -1.01158,2.60599 -1.31098,3.54491c-0.46467,1.44351 -2.63473,1.0986 -2.29062,-0.92615c0.4519,-2.65709 1.93453,-5.69102 2.2523,-7.39641c0.31856,-1.70539 -4.98284,-20.08783 -6.79042,-26.4048c-1.39321,-4.85429 -5.79721,-19.3533 -5.79721,-19.3533l-2.28503,-21.49302" fill="none" stroke="#5e154d" stroke-width="1.2" stroke-linecap="round" stroke-linejoin="round"/></g><g><path d="M252.97429,141.62801c-1.30459,0 -4.08543,0.05749 -6.23633,-2.22276c-1.96647,-2.08224 -2.62834,-6.05509 -2.86387,-8.3545h3.38523c0,0 0.31856,6.06787 3.5002,6.70659c0.60679,0.10299 1.21836,0.16766 1.83313,0.19162c0.23313,1.21278 0.36088,2.44391 0.38164,3.67904z" fill="#ffc9c2" stroke="none" stroke-width="1" stroke-linecap="butt" stroke-linejoin="miter"/><path d="M247.00462,139.67352c2.43753,2.44631 5.97605,1.59681 5.97605,1.59681c0.03832,10.04072 -5.04671,13.78364 -12.21238,13.78364c-8.87186,0 -15.27426,-5.95928 -13.28863,-17.07945c0.78483,-0.01996 1.56727,-0.09261 2.34252,-0.21717c3.18164,-0.63872 3.5002,-6.70659 3.5002,-6.70659h10.5517c0.23553,2.2994 1.11377,6.59162 3.13054,8.62276z" fill="#f8b1a4" stroke="none" stroke-width="1" stroke-linecap="butt" stroke-linejoin="miter"/><path d="M227.47966,137.97452c0.78483,-0.01996 1.56727,-0.09261 2.34252,-0.21717c3.18164,-0.63872 3.5002,-6.70659 3.5002,-6.70659h13.93693c0,0 0.31856,6.06787 3.5002,6.70659c0.60679,0.10299 1.21836,0.16766 1.83313,0.19162c1.94092,14.65869 -3.5513,17.105 -11.82436,17.105c-8.87186,0 -15.27426,-5.95928 -13.28863,-17.07945z" fill="none" stroke="#5e154d" stroke-width="1.2" stroke-linecap="round" stroke-linejoin="round"/><path d="M259.33836,150.62123c-0.26587,3.31178 -0.34491,6.63633 -0.23553,9.95769c0.31218,5.44192 1.06906,17.8523 1.40679,24.6036c0.11417,2.20359 0.20998,5.59521 0.28663,9.54252c-6.83034,1.38443 -13.77965,2.09262 -20.74732,2.11417c-6.8016,-0.01677 -13.58564,-0.69461 -20.2571,-2.02475c0.07665,-3.98563 0.17246,-7.40919 0.28663,-9.63194c0.41996,-8.41198 1.32375,-25.38923 1.32375,-25.38923c-0.05749,1.20719 0.16527,-2.60599 -0.05749,-8.14372c-0.31776,-7.87545 -1.55289,-12.44232 -1.55289,-12.44232c2.49341,-0.78403 5.08823,-1.2 7.7006,-1.23274c0.87824,2.71457 0.56687,10.57725 5.72775,13.77086c3.54491,2.21637 10.22755,2.37605 13.72775,-0.11497c4.04711,-2.88064 5.33892,-9.77246 5.64471,-13.68144c0.29301,0.01916 1.83313,0.07026 4.05988,0.3002c1.33174,0.13653 2.63154,0.48782 3.8507,1.04112c0,0 -0.53493,4.84791 -1.16487,11.33094z" fill="none" stroke="#5e154d" stroke-width="1.2" stroke-linecap="round" stroke-linejoin="round"/><path d="M260.80902,194.74421c-12.5054,2.57086 -25.37806,2.78723 -37.96249,0.63872c0.62435,-9.63833 1.69341,-27.01798 1.69341,-34.36329c-0.11178,-7.55849 -0.64351,-15.105 -1.59122,-22.6044c1.49781,-0.26986 3.01557,-0.41677 4.53733,-0.44072c0.87824,2.71457 0.56687,10.57725 5.72775,13.77086c3.54491,2.21637 10.22755,2.37605 13.72775,-0.11497c4.04711,-2.88064 5.33892,-9.77246 5.64471,-13.68144c0.29301,0.01916 1.83313,0.07026 4.05988,0.3002c1.33174,0.13653 2.63154,0.48782 3.8507,1.04112c0,0 -0.52216,4.84791 -1.15848,11.33094c-0.26587,3.31178 -0.34491,6.63633 -0.23553,9.95769c0.31218,5.44192 1.06906,17.8523 1.40679,24.6036c0.11417,2.20359 0.20998,5.59521 0.28663,9.54252z" fill="#ffffff" stroke="none" stroke-width="1" stroke-linecap="butt" stroke-linejoin="miter"/><path d="M225.09323,165.70148c-0.22275,6.22755 -0.75689,20.43913 -1.49541,29.79003c-1.22794,-0.21078 -3.04192,-0.51737 -3.81876,-0.67705c0.07665,-3.98563 0.17246,-7.40919 0.28663,-9.63194c0.41996,-8.41198 1.32375,-25.38923 1.32375,-25.38923c-0.05749,1.20719 0.16527,-2.60599 -0.05749,-8.14372c-0.31776,-7.87545 -1.55289,-12.44232 -1.55289,-12.44232c1.09461,-0.36407 3.64072,-0.93892 3.64072,-0.93892c1.36926,9.07625 1.92974,18.25709 1.67345,27.43315z" fill="#fff2bb" stroke="none" stroke-width="1" stroke-linecap="butt" stroke-linejoin="miter"/><path d="M260.79625,194.74421c-12.5054,2.57086 -25.37806,2.78723 -37.96249,0.63872c-1.24711,-0.21078 -2.28423,-0.40878 -3.06108,-0.56846c0.07665,-3.98563 0.17246,-7.40919 0.28663,-9.63194c0.41996,-8.41198 1.32375,-25.38923 1.32375,-25.38923c-0.05749,1.20719 0.16527,-2.60599 -0.05749,-8.14372c-0.31776,-7.87545 -1.55289,-12.44232 -1.55289,-12.44232c1.04032,-0.34172 2.10379,-0.60679 3.18244,-0.79202c1.49781,-0.26986 3.01557,-0.41677 4.53733,-0.44072c0.87824,2.71457 0.56687,10.57725 5.72775,13.77086c3.54491,2.21637 10.22755,2.37605 13.72775,-0.11497c4.04711,-2.88064 5.33892,-9.77246 5.64471,-13.68144c0.29301,0.01916 1.83313,0.07026 4.05988,0.3002c1.33174,0.13653 2.63154,0.48782 3.8507,1.04112c0,0 -0.52216,4.84791 -1.15848,11.33094c-0.26587,3.31178 -0.34491,6.63633 -0.23553,9.95769c0.31218,5.44192 1.06906,17.8523 1.40679,24.6036c0.11417,2.23553 0.20998,5.59521 0.28024,9.56168z" fill="none" stroke="#5e154d" stroke-width="1.2" stroke-linecap="round" stroke-linejoin="round"/></g><g><path d="M226.78665,123.30305c-6.92376,-0.91976 -12.60041,-3.51936 -17.60959,-8.61637c-6.79042,-6.92376 -7.802,-19.5066 -2.71058,-29.72616c5.09142,-10.21957 14.89182,-14.88224 14.89182,-14.88224c0,0 -3.18244,-2.33773 -6.89901,-0.8495c0,0 3.71657,-3.40439 6.89901,-4.26028c3.18164,-0.85589 6.04551,0.10858 6.78404,0.74731c0.99082,-2.58763 2.87425,-4.73134 5.30779,-6.04232c4.23872,-2.44631 7.52895,-2.12695 7.52895,-2.12695c0,0 -3.76767,4.57326 -4.21956,8.94212c0,0 6.23633,-3.73014 16.41917,-0.31936c10.18284,3.41078 18.16927,9.86188 20.68344,22.67466c2.64751,13.51538 -1.55928,26.48784 -13.18005,31.98085c-11.16248,5.27585 -27.42915,3.35968 -33.89543,2.47824z" fill="#5e154d" stroke="#5e154d" stroke-width="1.2" stroke-linecap="round" stroke-linejoin="round"/><path d="M252.73317,129.74777c2.44391,-3.53852 4.33373,-8.13094 4.71617,-15.79562c0.2986,-6.07425 -0.1022,-15.83394 -0.43273,-22.04233c0.68024,0.14691 1.30459,0.27465 1.83234,0.37685c1.2982,0.2491 2.08783,0.36407 2.08783,0.36407c0,0 0.62355,7.12176 0.83353,19.04672c0.14611,8.13733 -3.42994,14.53095 -9.03713,18.05031z" fill="#ffc9c2" stroke="none" stroke-width="1" stroke-linecap="butt" stroke-linejoin="miter"/><path d="M257.44295,113.95215c-0.38244,7.69022 -2.27226,12.25709 -4.71617,15.79562c-0.06387,0.03194 -0.11417,0.07665 -0.17804,0.11497c-2.67625,1.61198 -5.68942,2.57405 -8.8016,2.81038c-11.55689,0.95808 -19.11139,-3.48743 -23.38205,-10.08543c-2.97805,-4.60519 -3.46188,-10.91577 -2.82555,-17.42436c0.48782,-5.8499 2.10938,-11.54731 4.77366,-16.77286c2.96527,-6.07425 9.11937,-10.85829 9.11937,-10.85829c3.07385,3.99681 6.98443,7.26707 11.45549,9.58084c4.67785,2.47824 10.38643,3.99202 14.10939,4.79681c0.3497,6.20839 0.7505,15.94891 0.44551,22.04233z" fill="#f8b1a4" stroke="none" stroke-width="1" stroke-linecap="butt" stroke-linejoin="miter"/><path d="M222.33235,88.39046c4.09821,-7.39002 9.11937,-10.85829 9.11937,-10.85829c3.07385,3.99681 6.98443,7.26707 11.45549,9.58084c7.63673,4.04312 18.02955,5.53773 18.02955,5.53773c0,0 0.61717,7.12176 0.83353,19.04672c0.21637,11.92496 -7.54811,20.107 -18.01678,20.97566c-11.55689,0.95808 -19.62077,-3.53214 -23.09542,-9.58084c-5.24391,-9.12735 -3.2519,-25.84273 1.67425,-34.70181z" fill="none" stroke="#5e154d" stroke-width="1.2" stroke-linecap="round" stroke-linejoin="round"/><path d="M225.51399,96.64276c0,0 1.05629,-1.80759 4.45509,-1.80759c3.39801,0 4.13653,1.80759 4.13653,1.80759" fill="none" stroke="#5e154d" stroke-width="1.6" stroke-linecap="round" stroke-linejoin="round"/><path d="M248.84494,96.64276c0,0 1.06268,-1.80759 4.03433,-1.80759c2.97246,0 4.23872,1.80759 4.23872,1.80759" fill="none" stroke="#5e154d" stroke-width="1.6" stroke-linecap="round" stroke-linejoin="round"/><path d="M243.33356,106.30025c0,0 0.05749,4.00479 0.79521,5.92096c0.73852,1.91617 0.38802,3.23194 -1.06268,3.4491c-0.83273,0.10379 -1.66707,-0.17086 -2.27864,-0.74731" fill="none" stroke="#5e154d" stroke-width="1.2" stroke-linecap="round" stroke-linejoin="round"/><path d="M230.68126,104.09027c0.47585,0 0.90699,0.19401 1.21996,0.50699c0.31218,0.31377 0.50539,0.74651 0.50539,1.22395c0,0.47745 -0.19321,0.91018 -0.50539,1.22395c-0.31297,0.31297 -0.74411,0.50699 -1.21996,0.50699c-0.47505,0 -0.90699,-0.19401 -1.21916,-0.50699c-0.31218,-0.31377 -0.50539,-0.74651 -0.50539,-1.22395c0,-0.47745 0.19321,-0.91018 0.50539,-1.22395c0.31218,-0.31297 0.74411,-0.50699 1.21916,-0.50699z" fill="#5e154d" stroke="#5e154d" stroke-width="0.8" stroke-linecap="round" stroke-linejoin="round"/><path d="M252.30682,104.09027c0.47585,0 0.90699,0.19401 1.21916,0.50699c0.31218,0.31377 0.50539,0.74651 0.50539,1.22395c0,0.47745 -0.19321,0.91018 -0.50539,1.22395c-0.31218,0.31297 -0.74331,0.50699 -1.21916,0.50699c-0.47585,0 -0.90699,-0.19401 -1.21916,-0.50699c-0.31218,-0.31377 -0.50539,-0.74651 -0.50539,-1.22395c0,-0.47745 0.19321,-0.91018 0.50539,-1.22395c0.31218,-0.31297 0.74331,-0.50699 1.21916,-0.50699z" fill="#5e154d" stroke="#5e154d" stroke-width="0.8" stroke-linecap="round" stroke-linejoin="round"/><path d="M239.72478,120.16692h6.15409c0,0 0,4.84152 -3.08024,4.84152c-3.08024,0 -3.07385,-4.84152 -3.07385,-4.84152z" fill="#ff7bd0" stroke="#5e154d" stroke-width="1.2" stroke-linecap="round" stroke-linejoin="round"/><path d="M266.35872,82.02878c0.60759,0.91737 1.10978,1.901 1.49541,2.93174" fill="none" stroke="#8e3a82" stroke-width="2.4" stroke-linecap="round" stroke-linejoin="round"/><path d="M254.89045,72.80562c3.54411,1.32695 6.701,3.52256 9.18324,6.38723" fill="none" stroke="#8e3a82" stroke-width="2.4" stroke-linecap="round" stroke-linejoin="round"/></g></g></g></g></svg>